<?xml version="1.0" standalone="no"?>
<!DOCTYPE svg PUBLIC "-//W3C//DTD SVG 1.1//EN" "http://www.w3.org/Graphics/SVG/1.1/DTD/svg11.dtd" >
<svg xmlns="http://www.w3.org/2000/svg" width="100%" height="100%">
<metadata>
Created by FontXChange 20100429 at Thu Jun 14 10:13:52 2012
 By Nguyen Van Quy
Copyright (c) 1991 Digital Typeface Corp.
</metadata>
<defs>
<font id="EurostileExtended-Roman" horiz-adv-x="500" >
  <font-face 
    font-family="Eurostile Extended"
    font-weight="400"
    font-stretch="normal"
    units-per-em="1000"
    panose-1="0 0 0 0 0 0 0 0 0 0"
    ascent="800"
    descent="-200"
    x-height="470"
    cap-height="667"
    bbox="-197 -223 1478 856"
    underline-thickness="50"
    underline-position="-72"
    unicode-range="U+0020-2122"
  />
<missing-glyph horiz-adv-x="750" 
d="M46 0v750h658v-750h-658zM658 46v658h-566v-658h566z" />
    <glyph glyph-name=".notdef" horiz-adv-x="750" 
d="M46 0v750h658v-750h-658zM658 46v658h-566v-658h566z" />
    <glyph glyph-name="glyph1" horiz-adv-x="0" 
 />
    <glyph glyph-name="glyph2" horiz-adv-x="250" 
 />
    <glyph glyph-name="space" unicode=" " horiz-adv-x="250" 
 />
    <glyph glyph-name="exclam" unicode="!" horiz-adv-x="265" 
d="M185 0h-105v114h105v-114zM167 201h-73l-6 466h84z" />
    <glyph glyph-name="quotedbl" unicode="&#x22;" horiz-adv-x="327" 
d="M50 667h81l-12 -267h-57zM197 667h80l-12 -267h-57z" />
    <glyph glyph-name="numbersign" unicode="#" horiz-adv-x="752" 
d="M517 668h64l-28 -180h145l-9 -60h-146l-29 -181h146l-10 -64h-146l-29 -183h-64l29 183h-175l-29 -183h-62l29 183h-150l10 64h150l29 181h-150l9 60h150l29 180h62l-29 -180h176zM479 428h-175l-29 -181h175z" />
    <glyph glyph-name="dollar" unicode="$" horiz-adv-x="840" 
d="M446 723v-57l25 1l158 -2q94 0 144 -38.5t50 -130.5l-1 -21h-79q0 72 -27.5 96.5t-104.5 24.5l-165 -1v-223h22l158 -2q111 0 163.5 -37t52.5 -144q0 -117 -72.5 -153.5t-204.5 -36.5l-119 1v-77h-68v77l-90 -2l-137 5q-89 8 -121 58t-32 145h83l1 -17q0 -68 26.5 -93.5
t95.5 -25.5l150 -3l24 1v235l-23 -1l-185 4q-81 0 -124.5 44.5t-43.5 126.5q0 69 20 109.5t67.5 56.5t93.5 20t113 4l82 -1v57h68zM85 490q0 -81 41.5 -99t136.5 -18l115 -1v223l-149 -2q-70 0 -107 -20.5t-37 -82.5zM679 81q44 11 62 36t18 71q0 74 -41 93t-127 19l-145 1
v-233l98 -1q46 0 74.5 2.5t60.5 11.5z" />
    <glyph glyph-name="percent" unicode="%" horiz-adv-x="972" 
d="M254 669q107 0 138.5 -25.5t31.5 -137.5q0 -118 -28 -147t-132 -29h-125q-77 0 -97.5 38.5t-20.5 126.5q0 121 30.5 147.5t143.5 26.5h59zM149 371l154 1q23 0 36.5 3t22.5 15.5t11.5 39.5t2.5 61q0 104 -22 121t-129 17l-74 -2q-52 0 -66.5 -18t-14.5 -100v-13
q0 -35 1.5 -60.5t9.5 -40t26.5 -19.5t41.5 -5zM235 0h-52l554 666h53zM781 336q107 0 138.5 -25.5t31.5 -137.5q0 -122 -28.5 -149.5t-141.5 -27.5l-115 1q-77 0 -97.5 38.5t-20.5 126.5q0 122 31 148t148 26h54zM607 63q9 -15 27 -20t42 -5l72 -1l75 1q24 0 40 3t25 15
t11.5 36.5t2.5 56.5v39q0 31 -2.5 53t-12 33.5t-37 16t-61.5 4.5h-37l-74 -2q-54 0 -67.5 -19t-13.5 -88v-23v-13q0 -35 1.5 -54.5t8.5 -32.5z" />
    <glyph glyph-name="ampersand" unicode="&#x26;" horiz-adv-x="1008" 
d="M719 500q0 58 -24.5 77t-84.5 19l-140 4l-71 1l-70 -3q-43 -5 -62 -21.5t-19 -57.5q0 -37 21 -60.5t59 -43.5l459 -239q4 31 4 70l-2 71h86l3 -65q0 -63 -14 -115l144 -74l-34 -67l-134 69q-22 -33 -64.5 -51.5t-128.5 -18.5l-110 -2h-72l-194 5q-92 0 -141.5 49.5
t-49.5 144.5q0 107 31.5 148t132.5 53q-42 17 -60 46.5t-18 76.5q0 96 55 126t159 30l89 1q44 0 86 -0.5t87.5 -4.5t77.5 -16.5t53.5 -38t24.5 -65.5l6 -77h-85v29zM272 69l193 -8q79 0 118 1.5t85 8t63 12t31 25.5l-466 244q-79 -9 -104.5 -40.5t-25.5 -115.5
q0 -63 22 -91.5t84 -35.5z" />
    <glyph glyph-name="quotesingle" unicode="'" horiz-adv-x="182" 
d="M50 667h83l-12 -267h-59z" />
    <glyph glyph-name="parenleft" unicode="(" horiz-adv-x="336" 
d="M301 602q-76 0 -105 -25t-29 -99l-4 -277l4 -164q0 -64 23.5 -87.5t78.5 -23.5q28 0 55 3v-73l-43 -2q-89 0 -138 36t-54 87.5t-6 84t-1 48.5v15l-1 140l6 236q0 94 50 133.5t150 39.5l37 -1v-72z" />
    <glyph glyph-name="parenright" unicode=")" horiz-adv-x="336" 
d="M36 -74q76 0 105 25t29 99l4 277l-4 164q0 64 -23.5 87.5t-78.5 23.5q-28 0 -55 -3v73l43 2q89 0 138 -36t54 -89t6 -90t1 -56l1 -140l-6 -236q0 -94 -50 -133.5t-150 -39.5l-37 1v72z" />
    <glyph glyph-name="asterisk" unicode="*" horiz-adv-x="931" 
d="M496 666v-197l188 61l18 -58l-188 -61l117 -160l-49 -35l-116 160l-117 -160l-48 36l116 160l-188 61l19 57l188 -61v197h60z" />
    <glyph glyph-name="plus" unicode="+" 
d="M228 553h43v-192h205v-41h-205v-193h-43v193h-205v41h205v192z" />
    <glyph glyph-name="comma" unicode="," horiz-adv-x="377" 
d="M245 8q0 -115 -113 -115v53q24 5 36.5 14t12.5 29l-1 11h-35v112h100v-104z" />
    <glyph glyph-name="hyphen" unicode="-" horiz-adv-x="333" 
d="M323 245h-313v66h313v-66z" />
    <glyph glyph-name="period" unicode="." horiz-adv-x="377" 
d="M239 0h-100v109h100v-109z" />
    <glyph glyph-name="slash" unicode="/" horiz-adv-x="751" 
d="M-78 -139l700 806h99l-700 -806h-99z" />
    <glyph glyph-name="zero" unicode="0" horiz-adv-x="840" 
d="M236 670l189 3l217 -5q68 0 107.5 -44.5t47.5 -103t10 -105.5t2 -101q0 -124 -12 -185.5t-64 -98t-170 -36.5l-149 -1l-157 2q-84 0 -140.5 29.5t-67.5 87.5t-14.5 108.5t-3.5 104.5q0 72 1.5 112t13.5 102.5t58.5 96.5t131.5 34zM275 65l142 -2l148 3q74 0 109 18.5
t41.5 68.5t8.5 96.5t2 89.5q0 53 -2.5 102.5t-13 89t-45.5 54t-93 14.5l-147 4l-145 -3q-77 0 -114 -18.5t-42.5 -71.5t-7.5 -98t-2 -86l8 -151q6 -65 44 -87.5t109 -22.5z" />
    <glyph glyph-name="one" unicode="1" horiz-adv-x="840" 
d="M123 451l277 216h103v-667h-79v603l-255 -204z" />
    <glyph glyph-name="two" unicode="2" horiz-adv-x="840" 
d="M796 0h-737v28q0 155 35.5 219t172.5 64l149 9q45 0 83 2.5t106.5 13t88.5 38t20 92.5q0 73 -30.5 102.5t-105.5 29.5l-164 5l-128 -4q-78 0 -109.5 -29.5t-31.5 -115.5l-1 -34h-78q0 127 29.5 179t109.5 61.5t116 11t93 1.5h78q163 0 234 -33.5t71 -173.5
q0 -109 -46 -157t-157 -48l-171 -12l-141 -11q-94 0 -118.5 -34.5t-24.5 -134.5h657v-69z" />
    <glyph glyph-name="three" unicode="3" horiz-adv-x="840" 
d="M590 373q59 0 86 24t27 80q0 57 -10.5 90t-98.5 33l-137 4l-47 -1l-134 -3q-50 0 -85 -9.5t-46 -33t-13.5 -41.5t-2.5 -42v-12h-79q0 101 24 137t70.5 50.5t100 19t112.5 4.5h49l199 -4q96 -8 138.5 -41.5t42.5 -124.5q0 -79 -16.5 -115t-84.5 -46q69 -11 89.5 -45.5
t20.5 -110.5q0 -135 -58 -164t-211 -29h-192h-15q-57 0 -133.5 9.5t-108 53.5t-31.5 148h79q0 -67 18.5 -98t81.5 -37l194 -6l178 3q75 0 95.5 32t20.5 110q0 58 -23 77t-88 19h-7h-270v69h265z" />
    <glyph glyph-name="four" unicode="4" horiz-adv-x="840" 
d="M798 145h-106v-145h-79v145h-571v104l537 418h113v-454h106v-68zM114 213h499v391z" />
    <glyph glyph-name="five" unicode="5" horiz-adv-x="840" 
d="M267 450q39 3 79 3h27h121q123 0 204.5 -25t88 -81t7.5 -78.5t1 -49.5q0 -123 -43.5 -173.5t-166.5 -50.5l-105 -3l-214 5q-114 0 -167 36t-53 146l1 23h77q0 -69 25 -98t93 -35l175 -6l173 5q70 0 96.5 31t26.5 97q0 115 -23 148t-135 33l-248 5q-74 0 -114 -8.5
t-53 -53.5h-82l9 347h707v-69h-634l-5 -223q21 37 53 54t79 21z" />
    <glyph glyph-name="six" unicode="6" horiz-adv-x="840" 
d="M599 597q-37 4 -72 5t-81 1h-21l-77 1q-30 0 -54 -1t-65 -7t-67 -37t-26 -138v-116q23 59 60 73.5t111 14.5l114 4l80 1q58 0 82 -1.5t85 -9.5t89.5 -49.5t28.5 -130.5q0 -131 -55 -172t-195 -41l-123 -1h-73q-177 0 -231 49t-54 146l-1 159l4 159q0 72 50.5 116.5
t124.5 44.5q43 4 82 5t90 1h24l159 -5q87 0 139 -40.5t52 -126.5v-24h-83q0 63 -17.5 88.5t-79.5 31.5zM480 63h15q41 0 101 6.5t83.5 37t23.5 98.5q0 71 -27 95t-99 24l-156 3l-130 -3q-81 0 -118.5 -28.5t-37.5 -106.5q0 -63 31 -89t97 -32z" />
    <glyph glyph-name="seven" unicode="7" horiz-adv-x="840" 
d="M37 667h752v-98l-497 -569h-108l526 598h-673v69z" />
    <glyph glyph-name="eight" unicode="8" horiz-adv-x="840" 
d="M566 -7h-157l-166 1q-103 0 -148.5 38t-45.5 139q0 84 20.5 118t96.5 50l-44 12q-24 9 -39 28t-19 45t-4 68q0 104 46.5 141t150.5 37l170 3q49 0 95 -0.5t117 -7.5t107 -44t36 -122q0 -44 -7.5 -80t-27 -51t-36.5 -20t-44 -9q75 -10 99.5 -42.5t24.5 -113.5
q0 -115 -49 -152.5t-176 -37.5zM421 375l180 4q98 0 98 101q0 62 -19 88t-79 26l-178 4l-180 -4q-54 0 -77.5 -23.5t-23.5 -79.5q0 -62 19 -87.5t82 -25.5zM411 63h24h21q75 0 143.5 6t88.5 29t20 85q0 76 -28.5 99t-107.5 23l-151 3l-176 -4q-66 0 -89.5 -30t-23.5 -101
q0 -61 34 -84t99 -23z" />
    <glyph glyph-name="nine" unicode="9" horiz-adv-x="840" 
d="M325 64l134 -1h32h12q15 0 28 0.5t68 6.5t80 38.5t25 104.5l1 63v95q-14 -54 -45 -75.5t-90 -21.5l-150 -4h-27h-23q-78 0 -158.5 7t-119 47.5t-38.5 123.5q0 96 29.5 149.5t92 62.5t120 11t109.5 2h30l128 -2q85 0 146.5 -30.5t69 -86t9.5 -94.5t2 -76l-1 -64l-2 -128
q0 -81 -39.5 -132t-102.5 -57.5t-109.5 -8t-117.5 -1.5l-213 10q-76 8 -109 58t-33 130h81q0 -87 41.5 -107t139.5 -20zM424 340l148 5q71 0 101 29t30 100q0 72 -31 98.5t-104 26.5l-139 4l-58 1q-49 0 -69 -1.5t-68 -8.5t-72 -35t-24 -91q0 -75 25 -100t101 -25z" />
    <glyph glyph-name="colon" unicode=":" horiz-adv-x="377" 
d="M239 361h-100v109h100v-109zM239 0h-100v109h100v-109z" />
    <glyph glyph-name="semicolon" unicode=";" horiz-adv-x="377" 
d="M245 8q0 -115 -113 -115v53q24 5 36.5 14t12.5 29l-1 11h-35v112h100v-104zM245 362h-100v108h100v-108z" />
    <glyph glyph-name="less" unicode="&#x3c;" 
d="M114 334l352 -161v-75l-433 204v65l433 204v-75z" />
    <glyph glyph-name="equal" unicode="=" 
d="M477 390h-453v41h453v-41zM477 250h-453v40h453v-40z" />
    <glyph glyph-name="greater" unicode="&#x3e;" 
d="M386 335l-352 161v75l433 -204v-65l-433 -204v76z" />
    <glyph glyph-name="question" unicode="?" horiz-adv-x="740" 
d="M387 0h-105v114h105v-114zM495 368q70 9 94 34t24 91q0 57 -24 81t-83 29l-141 5l-117 -2q-50 0 -79 -16.5t-29 -71.5l-2 -61h-76l-1 58q0 64 26.5 103.5t72 46.5t70.5 8t65 1l72 -1h40t40 1q151 0 196 -48t45 -144q0 -112 -51.5 -140.5t-142 -42t-106.5 -28.5t-16 -54
h-75q0 73 32 104t166 47z" />
    <glyph glyph-name="at" unicode="@" horiz-adv-x="932" 
d="M719 219q0 -32 12 -47t43 -15q37 0 48.5 21t11.5 62l3 76q0 62 -4.5 113.5t-16 90.5t-36 57t-66 25t-97.5 10.5t-121 3.5l-34 -1l-120 -3q-51 0 -96 -5t-80.5 -23.5t-49 -87t-13.5 -153.5v-46q0 -64 6 -126.5t24 -107t71.5 -57t130.5 -12.5l140 -2l176 8q54 0 91.5 11.5
t55.5 49.5l47 -31q-11 -28 -33.5 -46.5t-67.5 -29.5t-111.5 -15t-158.5 -4q-136 0 -196 5.5t-105 18.5t-68.5 41.5t-35 76t-15 102t-3.5 117.5v54q0 69 5 120.5t21 92.5t48 62t82.5 31.5t114.5 14t137 3.5q81 0 129 -2.5t108 -9.5t98.5 -24.5t63 -65t28.5 -124t4 -139.5
q0 -59 -4.5 -104t-20.5 -65t-41 -26t-54 -6q-44 0 -71 19t-34 61q-11 -49 -54.5 -64t-107.5 -15h-33q-139 0 -190.5 31.5t-51.5 159.5q0 87 25 137t78 56.5t80 7.5t63 1h18q45 0 75.5 -2.5t56 -15.5t41.5 -48v61h54v-278zM579 168q43 9 63.5 35t20.5 109q0 90 -42 114.5
t-141 24.5h-11q-51 0 -88.5 -4.5t-58.5 -21.5t-27.5 -50t-6.5 -73q0 -98 37 -120t145 -22h15q34 0 49.5 1t44.5 7z" />
    <glyph glyph-name="A" unicode="A" horiz-adv-x="859" 
d="M75 0h-95l394 667h108l397 -667h-93l-87 150h-539zM198 217h463l-233 391z" />
    <glyph glyph-name="B" unicode="B" horiz-adv-x="929" 
d="M843 500q0 -78 -24 -106t-101 -41q85 0 116.5 -35.5t31.5 -123.5q0 -109 -51 -151.5t-167 -42.5h-555v667h564q91 0 138.5 -39t47.5 -128zM759 493q0 63 -28 84.5t-94 21.5h-463v-218h451q71 0 102.5 23t31.5 89zM782 182q0 44 -7 71.5t-30 40.5t-48.5 16.5t-55.5 3.5
h-11h-456v-247h458q77 0 113.5 23.5t36.5 91.5z" />
    <glyph glyph-name="C" unicode="C" horiz-adv-x="938" 
d="M649 -4l-172 -3l-74 -1l-148 7q-178 18 -178 191l-4 127q0 76 1.5 113t14.5 103t63 100t139 34q40 4 75.5 5t83.5 1h24l96 1q58 0 94 -2.5t94.5 -14.5t81.5 -64t23 -139h-80v6q0 45 -5.5 74t-26 42t-75.5 20t-152 7q-36 0 -109 -3t-110 -3q-86 -7 -110 -30.5t-30 -81.5
t-7 -105.5t-1 -90.5q0 -127 25.5 -175t135.5 -48l156 -2l149 2q92 0 128 22t36 106v27h84q0 -131 -40 -178t-182 -47z" />
    <glyph glyph-name="D" unicode="D" horiz-adv-x="989" 
d="M916 343q0 -89 -14 -165.5t-53 -116.5t-94 -50.5t-131 -10.5h-8h-522v666h557q162 0 213.5 -75t51.5 -248zM832 342q0 140 -34.5 198.5t-164.5 58.5h-458v-532h450q140 0 173.5 61t33.5 214z" />
    <glyph glyph-name="E" unicode="E" horiz-adv-x="828" 
d="M733 379v-67h-559v-245h587v-67h-668v667h661v-68h-580v-220h559z" />
    <glyph glyph-name="F" unicode="F" horiz-adv-x="777" 
d="M702 376v-67h-528v-309h-81v667h637v-68h-556v-223h528z" />
    <glyph glyph-name="G" unicode="G" horiz-adv-x="981" 
d="M481 329h434l1 -59q0 -154 -45.5 -215t-201.5 -61l-164 -1l-116 -1q-190 0 -251 56.5t-61 244.5v37q0 195 46 268t223 73l168 2l81 1l133 -5q96 0 136.5 -48t40.5 -149h-80q0 88 -37 108.5t-138 20.5l-136 1l-79 1l-131 -5q-76 -7 -107.5 -29t-31.5 -110l-4 -172
q0 -108 15.5 -164.5t161.5 -56.5l170 -2l72 -1h15q46 0 121 7t95 48t20 144h-350v67z" />
    <glyph glyph-name="H" unicode="H" horiz-adv-x="970" 
d="M174 0h-81v667h81v-289h622v289h80v-667h-80v311h-622v-311z" />
    <glyph glyph-name="I" unicode="I" horiz-adv-x="267" 
d="M174 0h-81v667h81v-667z" />
    <glyph glyph-name="J" unicode="J" horiz-adv-x="745" 
d="M655 224q0 -128 -48.5 -179.5t-180.5 -51.5l-83 1h-18q-67 0 -133 6q-87 0 -124.5 48t-37.5 142l1 53h78l-1 -19q0 -89 19.5 -118t103.5 -37l130 -5q66 0 112.5 5.5t67.5 25t27 48.5t6 67v14v443h81v-443z" />
    <glyph glyph-name="K" unicode="K" horiz-adv-x="882" 
d="M730 667h138l-490 -322l523 -345h-146l-463 312h-118v-312h-81v667h81v-288h118z" />
    <glyph glyph-name="L" unicode="L" horiz-adv-x="721" 
d="M701 0h-608v667h81v-600h527v-67z" />
    <glyph glyph-name="M" unicode="M" horiz-adv-x="1247" 
d="M591 0l-416 599v-599h-81v667h132l398 -572l400 572h130v-667h-81v599l-417 -599h-65z" />
    <glyph glyph-name="N" unicode="N" horiz-adv-x="1017" 
d="M93 0v667h135l615 -603v603h81v-667h-133l-617 606v-606h-81z" />
    <glyph glyph-name="O" unicode="O" horiz-adv-x="1003" 
d="M310 672l295 2q208 0 266.5 -55.5t58.5 -258.5v-24v-21q0 -72 -8.5 -151.5t-57 -122.5t-145.5 -43q-30 -3 -76.5 -4t-88.5 -1h-149h-18q-61 0 -117.5 6t-95 22t-63 55.5t-31.5 102.5t-7 149q0 81 2 116.5t16.5 101.5t70.5 96t148 30zM327 67l172 -3h62h21q71 0 143 7
t95.5 47.5t23.5 121.5l2 137q0 63 -5 109.5t-22 71t-44.5 32t-56 10t-60.5 2.5l-157 1l-155 -3q-114 0 -150 -29.5t-36 -139.5l-3 -100v-49q0 -126 27 -170.5t143 -44.5z" />
    <glyph glyph-name="P" unicode="P" horiz-adv-x="891" 
d="M844 477q0 -57 -8 -101t-31.5 -68t-58.5 -35.5t-105 -11.5h-467v-261h-81v667h553q109 0 153.5 -40.5t44.5 -149.5zM760 473q0 70 -26 98t-96 28h-464v-271h418q100 0 134 25t34 120z" />
    <glyph glyph-name="Q" unicode="Q" horiz-adv-x="997" 
d="M953 20l-69 46q-41 -43 -89 -56.5t-119 -13.5l-172 -2h-84l-147 5q-109 10 -153 62t-44 161l-3 111q0 55 1.5 92.5t13.5 115.5t77 105t206 27l130 1l211 -5q75 0 126.5 -26t66.5 -74.5t19.5 -97t4.5 -96.5v-30v-55q0 -54 -2.5 -88.5t-12.5 -74.5l77 -50zM842 414
q0 116 -30 151.5t-144 35.5l-169 2l-154 -2q-42 0 -73.5 -2.5t-55 -14t-35 -35.5t-16.5 -57t-6.5 -67.5t-1.5 -85.5v-55q0 -66 5.5 -108.5t22.5 -64.5t39 -29.5t49.5 -10.5t64 -4t55.5 -1l212 -3h12h12h48q20 3 43.5 5t48 11t45.5 32l-267 172l36 57l254 -164l7 137z" />
    <glyph glyph-name="R" unicode="R" horiz-adv-x="929" 
d="M862 469q0 -90 -26.5 -123.5t-115.5 -46.5q67 -9 98.5 -32.5t31.5 -85.5v-181h-80v148q0 74 -31.5 98t-109.5 24h-455v-270h-81v667h543q121 0 173.5 -40.5t52.5 -157.5zM778 474q0 78 -37 101.5t-122 23.5h-445v-262h447q88 0 122.5 27.5t34.5 109.5z" />
    <glyph glyph-name="S" unicode="S" horiz-adv-x="905" 
d="M701 580q-21 10 -76 16.5t-142 6.5h-28q-66 0 -136.5 -6t-102.5 -20t-41 -38t-9 -58q0 -61 33.5 -83t97.5 -22l73 -2l157 1q41 0 73 -1t96.5 -8t104 -45.5t39.5 -131.5q0 -61 -19 -101.5t-64.5 -61t-110 -26.5t-140.5 -6h-53q-75 0 -112.5 1.5t-115 11.5t-110.5 52.5
t-33 148.5h81v-14q0 -51 9.5 -75.5t49 -36t105.5 -15t130 -3.5q104 0 175.5 9t97.5 34t26 82q0 72 -33.5 91.5t-113.5 19.5l-153 2l-179 5q-94 0 -145 36t-51 122q0 68 22 113.5t74.5 65t123.5 25t159 5.5q73 0 105.5 -1.5t106 -9t112.5 -50.5t39 -131h-81q0 45 -10.5 67
t-30.5 31z" />
    <glyph glyph-name="T" unicode="T" horiz-adv-x="742" 
d="M329 0v599h-336v68h755v-68h-338v-599h-81z" />
    <glyph glyph-name="U" unicode="U" horiz-adv-x="958" 
d="M871 206q0 -142 -56.5 -177t-213.5 -35l-134 -1l-191 3q-99 0 -144.5 43.5t-45.5 142.5v484h81v-475q0 -80 36 -102.5t123 -22.5l143 -2l155 3q94 0 130 23t36 108v15v453h81v-460z" />
    <glyph glyph-name="V" unicode="V" horiz-adv-x="806" 
d="M826 667l-370 -667h-111l-365 667h94l327 -595l332 595h93z" />
    <glyph glyph-name="W" unicode="W" horiz-adv-x="1357" 
d="M1370 667l-318 -667h-112l-261 589l-264 -589h-110l-318 667h91l281 -593l264 593h111l263 -593l283 593h90z" />
    <glyph glyph-name="X" unicode="X" horiz-adv-x="864" 
d="M837 667l-330 -312l370 -355h-122l-324 315l-323 -315h-122l370 355l-332 312h118l289 -273l286 273h120z" />
    <glyph glyph-name="Y" unicode="Y" horiz-adv-x="810" 
d="M830 667l-385 -383v-284h-81v284l-384 383h115l309 -313l311 313h115z" />
    <glyph glyph-name="Z" unicode="Z" horiz-adv-x="824" 
d="M797 0h-771v67l633 532h-605v68h732v-68l-634 -532h645v-67z" />
    <glyph glyph-name="bracketleft" unicode="[" horiz-adv-x="336" 
d="M302 -76v-63h-182v806h182v-63h-103v-680h103z" />
    <glyph glyph-name="backslash" unicode="\" horiz-adv-x="751" 
d="M829 -139h-99l-700 806h99z" />
    <glyph glyph-name="bracketright" unicode="]" horiz-adv-x="336" 
d="M34 603v64h182v-806h-182v63h104v679h-104z" />
    <glyph glyph-name="asciicircum" unicode="^" 
d="M207 668h86l175 -293h-72l-147 241l-146 -241h-71z" />
    <glyph glyph-name="underscore" unicode="_" 
d="M500 -122h-500v50h500v-50z" />
    <glyph glyph-name="grave" unicode="`" 
d="M112 560l26 83l251 -83l-16 -43z" />
    <glyph glyph-name="a" unicode="a" horiz-adv-x="713" 
d="M563 55q-18 -31 -43.5 -43.5t-64.5 -15.5l-129 -3h-61q-124 0 -164.5 35.5t-40.5 104.5q0 76 28 107t78.5 36t89.5 6t73 1l132 -4q36 0 58 -11t44 -41v50q0 43 -7 71.5t-31 44.5t-81.5 19t-85.5 3q-34 0 -66 -0.5t-69.5 -5.5t-51.5 -24t-14 -56h-76q0 75 32.5 105
t98 36.5t120.5 6.5q68 0 113 -2.5t97 -16.5t71.5 -55.5t19.5 -109.5v-293h-70v55zM327 55h20q51 0 90 2.5t82.5 14.5t43.5 68q0 48 -29.5 61.5t-64 17t-77.5 3.5l-62 -1q-72 0 -101.5 -3t-53.5 -12t-32 -27.5t-8 -45.5q0 -36 21.5 -56t88.5 -20z" />
    <glyph glyph-name="b" unicode="b" horiz-adv-x="755" 
d="M150 393q21 53 70 68t122 15h53q165 0 229.5 -43t64.5 -199t-63 -198.5t-230 -42.5l-61 -1q-72 0 -114 14.5t-71 66.5v-73h-70v673h70v-280zM399 55h17q52 0 84.5 3t62.5 16.5t40.5 48.5t10.5 89v20q0 83 -16.5 125.5t-60.5 48.5t-78 7t-63 1q-46 0 -76 -1.5t-81.5 -8
t-69.5 -49.5t-18 -127q0 -59 11.5 -97.5t46.5 -54t80.5 -18.5t109.5 -3z" />
    <glyph glyph-name="c" unicode="c" horiz-adv-x="719" 
d="M439 -5l-78 -1q-155 0 -224.5 45t-69.5 192q0 58 4.5 94t30 76.5t83.5 58.5t135 18l42 -1q102 0 155 -6.5t94 -43.5t41 -121h-73q0 32 -10 53.5t-31 33t-61 17t-103 5.5h-12q-73 0 -101.5 -3.5t-62 -17.5t-43 -44t-11.5 -54.5t-2 -51.5v-14q0 -92 24.5 -124.5t66.5 -39
t77 -8.5t75 -2q22 0 52.5 0.5t89.5 14.5t59 97h73q0 -100 -56.5 -136.5t-163.5 -36.5z" />
    <glyph glyph-name="d" unicode="d" horiz-adv-x="755" 
d="M675 0h-70v72q-21 -50 -67.5 -65t-116.5 -15l-65 1q-163 0 -226 40.5t-63 195.5q0 146 52.5 196.5t198.5 50.5h55q81 0 111.5 -3t53.5 -12.5t39 -26.5t28 -40v279h70v-673zM372 55q134 0 183 29.5t49 148.5q0 82 -20.5 122t-70.5 47.5t-87.5 9.5t-72.5 2q-127 0 -169 -30
t-42 -157q0 -91 27.5 -130t113.5 -39z" />
    <glyph glyph-name="e" unicode="e" horiz-adv-x="733" 
d="M235 64q16 -3 51 -6t83 -3h38q52 0 82 3t54 13.5t35 27.5t13 42h74q0 -93 -74.5 -120.5t-192.5 -27.5q-129 0 -191 11.5t-101.5 62t-39.5 167.5q0 145 55.5 194.5t201.5 49.5l48 -1q113 0 170.5 -12.5t91 -61.5t33.5 -156l-1 -24h-529q0 -69 19 -107.5t80 -51.5zM400 415
h-55q-58 0 -103 -6.5t-67.5 -25.5t-29.5 -43.5t-7 -56.5h455q0 31 -6 55t-24 40.5t-56.5 26.5t-106.5 10z" />
    <glyph glyph-name="f" unicode="f" horiz-adv-x="377" 
d="M404 409h-236v-409h-70v409h-105v60h105v40q0 89 46 125.5t140 36.5l120 2v-60h-96q-74 0 -107 -18t-33 -86v-40h236v-60z" />
    <glyph glyph-name="g" unicode="g" horiz-adv-x="755" 
d="M675 -23q0 -98 -54 -147t-233 -49h-58q-126 0 -189 30t-63 139h68q9 -51 30.5 -72t62 -27t66 -7t66.5 -1q62 0 108 4t75 19t40 45t11 66v100q-23 -51 -63.5 -66.5t-107.5 -15.5l-120 -3q-133 0 -190 50.5t-57 182.5q0 127 38.5 188t153.5 61l134 2q84 0 137.5 -15
t74.5 -74v83h70v-493zM323 55h33h17q49 0 77.5 1.5t69.5 11.5t63 45t22 95q0 118 -26.5 161t-134.5 43l-135 3q-102 0 -134.5 -37t-32.5 -144v-11q0 -89 26 -123.5t56 -38.5t57.5 -5t41.5 -1z" />
    <glyph glyph-name="h" unicode="h" horiz-adv-x="737" 
d="M150 376q24 63 83 82t146 19q142 0 210 -30.5t68 -153.5v-293h-70v293q0 41 -11.5 66.5t-42 37t-66 15t-76.5 3.5q-111 0 -176 -23.5t-65 -115.5v-276h-70v673h70v-297z" />
    <glyph glyph-name="i" unicode="i" horiz-adv-x="230" 
d="M150 0h-70v470h70v-470zM150 585h-70v88h70v-88z" />
    <glyph glyph-name="j" unicode="j" horiz-adv-x="228" 
d="M148 0q0 -88 -25.5 -127.5t-109.5 -39.5l-20 1v58l15 -1q45 0 57.5 21.5t12.5 67.5v20v470h70v-470zM148 585h-70v88h70v-88z" />
    <glyph glyph-name="k" unicode="k" horiz-adv-x="623" 
d="M605 470l-346 -221l378 -249h-116l-329 222h-42v-222h-70v673h70v-391h42l295 188h118z" />
    <glyph glyph-name="l" unicode="l" horiz-adv-x="230" 
d="M150 0h-70v673h70v-673z" />
    <glyph glyph-name="m" unicode="m" horiz-adv-x="1159" 
d="M150 395q20 52 69 67t122 15h15q96 0 153.5 -16.5t83.5 -82.5q27 65 81 82t146 17q131 0 195 -36.5t64 -157.5v-283h-70v283q0 83 -43 107.5t-137 24.5h-24q-115 0 -153 -33.5t-38 -98.5v-283h-70v283q0 67 -34 99.5t-156 32.5q-130 0 -167 -36t-37 -111v-268h-70v470h70
v-75z" />
    <glyph glyph-name="n" unicode="n" horiz-adv-x="723" 
d="M150 373q23 68 77 86t144 18h9q74 0 123.5 -8t85 -36t45 -63t9.5 -87v-283h-70v276q0 88 -47 113.5t-146 25.5q-113 0 -171.5 -25.5t-58.5 -124.5v-265h-70v470h70v-97z" />
    <glyph glyph-name="o" unicode="o" horiz-adv-x="750" 
d="M370 476q120 0 180 -12t96.5 -61t36.5 -159q0 -167 -64 -209t-250 -42q-165 0 -234 41t-69 196q0 110 32 168.5t100 67t99 9.5t73 1zM370 55q132 0 185.5 23t53.5 135q0 87 -18.5 136t-71 56t-84 8t-74.5 1h-21q-116 0 -157.5 -31t-41.5 -148q0 -112 43 -146.5t159 -34.5
z" />
    <glyph glyph-name="p" unicode="p" horiz-adv-x="755" 
d="M150 395q24 50 65.5 65.5t108.5 15.5h74q163 0 226.5 -43t63.5 -197q0 -126 -41 -183.5t-162 -57.5l-86 -2l-101 1q-58 0 -94.5 17t-53.5 67v-281h-70v673h70v-75zM613 232q0 126 -40.5 154t-175.5 28h-24q-48 0 -75.5 -1.5t-70.5 -11t-59.5 -51.5t-16.5 -117
q0 -128 50 -153t197 -25q129 0 172 29t43 148z" />
    <glyph glyph-name="q" unicode="q" horiz-adv-x="755" 
d="M675 -203h-70v278q-17 -39 -50.5 -57.5t-81.5 -22.5l-107 -2q-165 0 -232 40.5t-67 194.5q0 127 37 176.5t86.5 57.5t90.5 11t76 3h58q76 0 121 -13.5t69 -66.5v74h70v-673zM203 69q19 -8 54.5 -11t69.5 -3h37q161 0 201 36t40 125q0 111 -29.5 154t-134.5 43l-96 1
q-123 0 -163 -29t-40 -152q0 -33 1.5 -54.5t7 -43.5t19 -39.5t33.5 -26.5z" />
    <glyph glyph-name="r" unicode="r" horiz-adv-x="598" 
d="M150 387q14 42 54.5 66t132.5 24q134 0 187.5 -33.5t53.5 -158.5l-1 -22h-69q0 89 -27.5 120.5t-117.5 31.5h-24q-102 0 -145.5 -28.5t-43.5 -123.5v-263h-70v470h70v-83z" />
    <glyph glyph-name="s" unicode="s" horiz-adv-x="713" 
d="M489 411l-138 4q-44 0 -71.5 -1t-62 -6t-55 -18.5t-20.5 -45.5q0 -43 21.5 -56.5t67.5 -13.5l121 -3h131q87 0 129 -27.5t42 -108.5q0 -93 -49.5 -116.5t-152.5 -23.5l-131 -2q-60 0 -91.5 1.5t-78 11t-68.5 41t-22 91.5l1 21h71l1 -11q0 -48 20 -66t70 -23l123 -4h21h18
q62 0 111 5.5t65.5 18t16.5 45.5q0 50 -24.5 68t-78.5 18l-127 1h-121q-79 0 -120 25t-41 100q0 70 40 102.5t111 32.5l133 6q37 0 72 -0.5t79 -4.5q73 0 103.5 -30.5t30.5 -102.5h-70q-4 40 -18.5 53.5t-58.5 18.5z" />
    <glyph glyph-name="t" unicode="t" horiz-adv-x="531" 
d="M496 410h-325v-226q0 -79 27 -104t106 -25q72 0 106 17.5t34 81.5l-1 53h65q0 -130 -31.5 -172t-164.5 -42q-110 0 -160.5 28.5t-50.5 129.5v33v226h-114v60h114v106h70v-106h325v-60z" />
    <glyph glyph-name="u" unicode="u" horiz-adv-x="724" 
d="M575 91q-18 -46 -65 -72t-150 -26q-170 0 -224.5 47t-54.5 139v15v276h70v-257q0 -103 43.5 -130.5t153.5 -27.5q115 0 171 27.5t56 130.5v257h70v-470h-70v91z" />
    <glyph glyph-name="v" unicode="v" horiz-adv-x="593" 
d="M613 470l-273 -470h-92l-268 470h79l235 -414l240 414h79z" />
    <glyph glyph-name="w" unicode="w" horiz-adv-x="925" 
d="M938 470l-215 -470h-105l-155 417l-155 -417h-104l-217 470h79l189 -418l155 418h107l155 -418l186 418h80z" />
    <glyph glyph-name="x" unicode="x" horiz-adv-x="619" 
d="M600 470l-236 -221l262 -249h-103l-211 206l-214 -206h-104l265 249l-237 221h105l185 -180l184 180h104z" />
    <glyph glyph-name="y" unicode="y" horiz-adv-x="566" 
d="M586 470l-261 -509q-53 -102 -94 -143t-133 -41l-36 1v57l20 -1q73 0 102 36t80 135h-27l-264 465h81l236 -416l214 416h82z" />
    <glyph glyph-name="z" unicode="z" horiz-adv-x="597" 
d="M135 60h429v-60h-530v71l431 342h-411v60h510v-70z" />
    <glyph glyph-name="braceleft" unicode="{" 
d="M270 -25q0 -56 20.5 -76.5t74.5 -20.5v-64q-93 0 -131 28t-38 121v160q0 39 -12.5 62.5t-45.5 33.5v58q32 10 45 33.5t13 59.5v175q0 79 37.5 107.5t117.5 28.5l14 -1v-66q-52 0 -73.5 -19.5t-21.5 -73.5v-162q0 -44 -10 -69t-44 -44q32 -17 43 -45t11 -70v-156z" />
    <glyph glyph-name="bar" unicode="|" 
d="M288 -167h-76v833h76v-833z" />
    <glyph glyph-name="braceright" unicode="}" 
d="M230 519q0 56 -20.5 76.5t-74.5 20.5v64q96 0 132.5 -26t36.5 -123v-161q0 -39 12.5 -62.5t45.5 -33.5v-57q-32 -10 -45 -33.5t-13 -59.5v-176q0 -77 -37.5 -106t-117.5 -29h-14v67q52 0 73.5 19.5t21.5 73.5v162q0 43 10.5 68.5t43.5 43.5q-32 17 -43 45t-11 70v157z
" />
    <glyph glyph-name="asciitilde" unicode="~" horiz-adv-x="667" 
d="M229 724q39 0 107 -36.5t105 -36.5q30 0 51 20t40 55l41 -32q-21 -48 -56.5 -79.5t-82.5 -31.5q-39 0 -104 34.5t-97 38.5q-33 0 -55 -19.5t-43 -55.5l-41 32q23 48 56 79.5t79 31.5z" />
    <glyph glyph-name="asciitilde" unicode="&#x2dc;" horiz-adv-x="667" 
d="M229 724q39 0 107 -36.5t105 -36.5q30 0 51 20t40 55l41 -32q-21 -48 -56.5 -79.5t-82.5 -31.5q-39 0 -104 34.5t-97 38.5q-33 0 -55 -19.5t-43 -55.5l-41 32q23 48 56 79.5t79 31.5z" />
    <glyph glyph-name="Adieresis" unicode="&#xc4;" horiz-adv-x="859" 
d="M75 0h-95l394 667h108l397 -667h-93l-87 150h-539zM198 217h463l-233 391zM378 733h-141v66h141v-66zM622 733h-141v66h141v-66z" />
    <glyph glyph-name="Aring" unicode="&#xc5;" horiz-adv-x="859" 
d="M75 0h-95l394 667h108l397 -667h-93l-87 150h-539zM198 217h463l-233 391zM429 707q-51 0 -92.5 15t-41.5 57t43 59.5t91 17.5q51 0 93 -17t42 -60q0 -42 -42 -57t-93 -15zM426 748h4q45 0 66.5 7.5t21.5 24.5q0 18 -21.5 27t-67.5 9q-34 0 -61 -6t-27 -29
q0 -20 27 -26.5t58 -6.5z" />
    <glyph glyph-name="Ccedilla" unicode="&#xc7;" horiz-adv-x="938" 
d="M649 -4l-172 -3l-74 -1l-148 7q-178 18 -178 190l-4 128q0 76 1.5 113t14.5 103t63 100t139 34q40 4 75.5 5t83.5 1h24l96 1q58 0 94 -2.5t94.5 -14.5t81.5 -64t23 -139h-80v6q0 45 -5.5 74t-26 42t-75.5 20t-152 7q-36 0 -109 -3t-110 -3q-50 -4 -80 -14t-41 -33
t-15 -45t-7 -50t-4 -75.5t-1 -90.5q0 -127 25.5 -175t135.5 -48l156 -2l149 2q92 0 128 22t36 106v27h84q0 -131 -40 -178t-182 -47zM554 -93l-148 -40l-20 40l135 61z" />
    <glyph glyph-name="Eacute" unicode="&#xc9;" horiz-adv-x="828" 
d="M733 379v-67h-559v-245h587v-67h-668v667h661v-68h-580v-220h559zM552 756l-262 -43l-15 43l251 83z" />
    <glyph glyph-name="Ntilde" unicode="&#xd1;" horiz-adv-x="1017" 
d="M93 0v667h135l615 -603v603h81v-667h-133l-617 606v-606h-81zM421 814q25 0 83 -21.5t83 -21.5q19 0 31 13t19 33h63q-5 -47 -32.5 -76.5t-72.5 -29.5q-34 0 -88.5 20.5t-80.5 20.5q-19 0 -29 -11t-18 -34h-63q5 44 33.5 75.5t71.5 31.5z" />
    <glyph glyph-name="Odieresis" unicode="&#xd6;" horiz-adv-x="1003" 
d="M310 672l295 2q208 0 266.5 -55.5t58.5 -258.5v-24v-21q0 -72 -8.5 -151.5t-57 -122.5t-145.5 -43q-30 -3 -76.5 -4t-88.5 -1h-149h-18q-61 0 -117.5 6t-95 22t-63 55.5t-31.5 102.5t-7 149q0 81 2 116.5t16.5 101.5t70.5 96t148 30zM327 67l172 -3h62h21q71 0 143 7
t95.5 47.5t23.5 121.5l2 137q0 63 -5 109.5t-22 71t-44.5 32t-56 10t-60.5 2.5l-157 1l-155 -3q-114 0 -150 -29.5t-36 -139.5l-3 -100v-49q0 -126 27 -170.5t143 -44.5zM450 733h-141v66h141v-66zM694 733h-141v66h141v-66z" />
    <glyph glyph-name="Udieresis" unicode="&#xdc;" horiz-adv-x="958" 
d="M871 206q0 -142 -56.5 -177t-213.5 -35l-134 -1l-191 3q-99 0 -144.5 43.5t-45.5 142.5v484h81v-475q0 -80 36 -102.5t123 -22.5l143 -2l155 3q94 0 130 23t36 108v15v453h81v-460zM427 733h-141v66h141v-66zM671 733h-141v66h141v-66z" />
    <glyph glyph-name="aacute" unicode="&#xe1;" horiz-adv-x="713" 
d="M563 55q-18 -31 -43.5 -43.5t-64.5 -15.5l-129 -3h-61q-124 0 -164.5 35.5t-40.5 104.5q0 76 28 107t78.5 36t89.5 6t73 1l132 -4q36 0 58 -11t44 -41v50q0 43 -7 71.5t-31 44.5t-81.5 19t-85.5 3q-34 0 -66 -0.5t-69.5 -5.5t-51.5 -24t-14 -56h-76q0 75 32.5 105
t98 36.5t120.5 6.5q68 0 113 -2.5t97 -16.5t71.5 -55.5t19.5 -109.5v-293h-70v55zM327 55h20q51 0 90 2.5t82.5 14.5t43.5 68q0 48 -29.5 61.5t-64 17t-77.5 3.5l-62 -1q-72 0 -101.5 -3t-53.5 -12t-32 -27.5t-8 -45.5q0 -36 21.5 -56t88.5 -20zM495 559l-262 -43l-15 43
l251 83z" />
    <glyph glyph-name="agrave" unicode="&#xe0;" horiz-adv-x="713" 
d="M563 55q-18 -31 -43.5 -43.5t-64.5 -15.5l-129 -3h-61q-124 0 -164.5 35.5t-40.5 104.5q0 76 28 107t78.5 36t89.5 6t73 1l132 -4q36 0 58 -11t44 -41v50q0 43 -7 71.5t-31 44.5t-81.5 19t-85.5 3q-34 0 -66 -0.5t-69.5 -5.5t-51.5 -24t-14 -56h-76q0 75 32.5 105
t98 36.5t120.5 6.5q68 0 113 -2.5t97 -16.5t71.5 -55.5t19.5 -109.5v-293h-70v55zM327 55h20q51 0 90 2.5t82.5 14.5t43.5 68q0 48 -29.5 61.5t-64 17t-77.5 3.5l-62 -1q-72 0 -101.5 -3t-53.5 -12t-32 -27.5t-8 -45.5q0 -36 21.5 -56t88.5 -20zM218 559l26 83l251 -83
l-16 -43z" />
    <glyph glyph-name="acircumflex" unicode="&#xe2;" horiz-adv-x="713" 
d="M563 55q-18 -31 -43.5 -43.5t-64.5 -15.5l-129 -3h-61q-124 0 -164.5 35.5t-40.5 104.5q0 76 28 107t78.5 36t89.5 6t73 1l132 -4q36 0 58 -11t44 -41v50q0 43 -7 71.5t-31 44.5t-81.5 19t-85.5 3q-34 0 -66 -0.5t-69.5 -5.5t-51.5 -24t-14 -56h-76q0 75 32.5 105
t98 36.5t120.5 6.5q68 0 113 -2.5t97 -16.5t71.5 -55.5t19.5 -109.5v-293h-70v55zM327 55h20q51 0 90 2.5t82.5 14.5t43.5 68q0 48 -29.5 61.5t-64 17t-77.5 3.5l-62 -1q-72 0 -101.5 -3t-53.5 -12t-32 -27.5t-8 -45.5q0 -36 21.5 -56t88.5 -20zM164 556l193 83l193 -83
l-12 -39l-181 45l-180 -45z" />
    <glyph glyph-name="adieresis" unicode="&#xe4;" horiz-adv-x="713" 
d="M563 55q-18 -31 -43.5 -43.5t-64.5 -15.5l-129 -3h-61q-124 0 -164.5 35.5t-40.5 104.5q0 76 28 107t78.5 36t89.5 6t73 1l132 -4q36 0 58 -11t44 -41v50q0 43 -7 71.5t-31 44.5t-81.5 19t-85.5 3q-34 0 -66 -0.5t-69.5 -5.5t-51.5 -24t-14 -56h-76q0 75 32.5 105
t98 36.5t120.5 6.5q68 0 113 -2.5t97 -16.5t71.5 -55.5t19.5 -109.5v-293h-70v55zM327 55h20q51 0 90 2.5t82.5 14.5t43.5 68q0 48 -29.5 61.5t-64 17t-77.5 3.5l-62 -1q-72 0 -101.5 -3t-53.5 -12t-32 -27.5t-8 -45.5q0 -36 21.5 -56t88.5 -20zM305 536h-141v66h141v-66z
M549 536h-141v66h141v-66z" />
    <glyph glyph-name="atilde" unicode="&#xe3;" horiz-adv-x="713" 
d="M563 55q-18 -31 -43.5 -43.5t-64.5 -15.5l-129 -3h-61q-124 0 -164.5 35.5t-40.5 104.5q0 76 28 107t78.5 36t89.5 6t73 1l132 -4q36 0 58 -11t44 -41v50q0 43 -7 71.5t-31 44.5t-81.5 19t-85.5 3q-34 0 -66 -0.5t-69.5 -5.5t-51.5 -24t-14 -56h-76q0 75 32.5 105
t98 36.5t120.5 6.5q68 0 113 -2.5t97 -16.5t71.5 -55.5t19.5 -109.5v-293h-70v55zM327 55h20q51 0 90 2.5t82.5 14.5t43.5 68q0 48 -29.5 61.5t-64 17t-77.5 3.5l-62 -1q-72 0 -101.5 -3t-53.5 -12t-32 -27.5t-8 -45.5q0 -36 21.5 -56t88.5 -20zM270 624q25 0 83 -21.5
t83 -21.5q19 0 31 13t19 33h63q-5 -47 -32.5 -76.5t-72.5 -29.5q-34 0 -88.5 20.5t-80.5 20.5q-19 0 -29 -11t-18 -34h-63q5 44 33.5 75.5t71.5 31.5z" />
    <glyph glyph-name="aring" unicode="&#xe5;" horiz-adv-x="713" 
d="M563 55q-18 -31 -43.5 -43.5t-64.5 -15.5l-129 -3h-61q-124 0 -164.5 35.5t-40.5 104.5q0 76 28 107t78.5 36t89.5 6t73 1l132 -4q36 0 58 -11t44 -41v50q0 43 -7 71.5t-31 44.5t-81.5 19t-85.5 3q-34 0 -66 -0.5t-69.5 -5.5t-51.5 -24t-14 -56h-76q0 75 32.5 105
t98 36.5t120.5 6.5q68 0 113 -2.5t97 -16.5t71.5 -55.5t19.5 -109.5v-293h-70v55zM327 55h20q51 0 90 2.5t82.5 14.5t43.5 68q0 48 -29.5 61.5t-64 17t-77.5 3.5l-62 -1q-72 0 -101.5 -3t-53.5 -12t-32 -27.5t-8 -45.5q0 -36 21.5 -56t88.5 -20zM356 510q-51 0 -92.5 15
t-41.5 57t43 59.5t91 17.5q51 0 93 -17t42 -60q0 -42 -42 -57t-93 -15zM353 551h4q45 0 66.5 7.5t21.5 24.5q0 18 -21.5 27t-67.5 9q-34 0 -61 -6t-27 -29q0 -20 27 -26.5t58 -6.5z" />
    <glyph glyph-name="ccedilla" unicode="&#xe7;" horiz-adv-x="719" 
d="M438 -5l-78 -1q-155 0 -224.5 45t-69.5 193q0 57 4.5 92.5t29.5 76.5t83.5 59t135.5 18l43 -1q102 0 154.5 -7t94 -44t41.5 -120h-74q0 32 -9.5 53.5t-36.5 35.5t-81.5 17t-77.5 3h-26q-50 0 -82 -3t-66.5 -17.5t-43.5 -44t-11.5 -54.5t-2.5 -52v-13q0 -93 24.5 -125
t66.5 -39t77 -9t75 -2q22 0 52.5 0.5t89.5 14.5t59 97h74q0 -101 -56 -137t-165 -36zM424 -94l-148 -40l-19 40l134 61z" />
    <glyph glyph-name="eacute" unicode="&#xe9;" horiz-adv-x="733" 
d="M235 64q16 -3 51 -6t83 -3h38q52 0 82 3t54 13.5t35 27.5t13 42h74q0 -93 -74.5 -120.5t-192.5 -27.5q-129 0 -191 11.5t-101.5 62t-39.5 167.5q0 145 55.5 194.5t201.5 49.5l48 -1q113 0 170.5 -12.5t91 -61.5t33.5 -156l-1 -24h-529q0 -69 19 -107.5t80 -51.5zM400 415
h-55q-58 0 -103 -6.5t-67.5 -25.5t-29.5 -43.5t-7 -56.5h455q0 31 -6 55t-24 40.5t-56.5 26.5t-106.5 10zM505 559l-262 -43l-15 43l251 83z" />
    <glyph glyph-name="egrave" unicode="&#xe8;" horiz-adv-x="733" 
d="M235 64q16 -3 51 -6t83 -3h38q52 0 82 3t54 13.5t35 27.5t13 42h74q0 -93 -74.5 -120.5t-192.5 -27.5q-129 0 -191 11.5t-101.5 62t-39.5 167.5q0 145 55.5 194.5t201.5 49.5l48 -1q113 0 170.5 -12.5t91 -61.5t33.5 -156l-1 -24h-529q0 -69 19 -107.5t80 -51.5zM400 415
h-55q-58 0 -103 -6.5t-67.5 -25.5t-29.5 -43.5t-7 -56.5h455q0 31 -6 55t-24 40.5t-56.5 26.5t-106.5 10zM228 559l26 83l251 -83l-16 -43z" />
    <glyph glyph-name="ecircumflex" unicode="&#xea;" horiz-adv-x="733" 
d="M235 64q16 -3 51 -6t83 -3h38q52 0 82 3t54 13.5t35 27.5t13 42h74q0 -93 -74.5 -120.5t-192.5 -27.5q-129 0 -191 11.5t-101.5 62t-39.5 167.5q0 145 55.5 194.5t201.5 49.5l48 -1q113 0 170.5 -12.5t91 -61.5t33.5 -156l-1 -24h-529q0 -69 19 -107.5t80 -51.5zM400 415
h-55q-58 0 -103 -6.5t-67.5 -25.5t-29.5 -43.5t-7 -56.5h455q0 31 -6 55t-24 40.5t-56.5 26.5t-106.5 10zM173 556l193 83l193 -83l-12 -39l-181 45l-180 -45z" />
    <glyph glyph-name="edieresis" unicode="&#xeb;" horiz-adv-x="733" 
d="M235 64q16 -3 51 -6t83 -3h38q52 0 82 3t54 13.5t35 27.5t13 42h74q0 -93 -74.5 -120.5t-192.5 -27.5q-129 0 -191 11.5t-101.5 62t-39.5 167.5q0 145 55.5 194.5t201.5 49.5l48 -1q113 0 170.5 -12.5t91 -61.5t33.5 -156l-1 -24h-529q0 -69 19 -107.5t80 -51.5zM400 415
h-55q-58 0 -103 -6.5t-67.5 -25.5t-29.5 -43.5t-7 -56.5h455q0 31 -6 55t-24 40.5t-56.5 26.5t-106.5 10zM314 536h-141v66h141v-66zM558 536h-141v66h141v-66z" />
    <glyph glyph-name="iacute" unicode="&#xed;" horiz-adv-x="230" 
d="M150 0h-70v470h70v-470zM254 559l-262 -43l-15 43l251 83z" />
    <glyph glyph-name="igrave" unicode="&#xec;" horiz-adv-x="230" 
d="M150 0h-70v470h70v-470zM-23 559l26 83l251 -83l-16 -43z" />
    <glyph glyph-name="icircumflex" unicode="&#xee;" horiz-adv-x="230" 
d="M150 0h-70v470h70v-470zM-78 556l193 83l193 -83l-12 -39l-181 45l-180 -45z" />
    <glyph glyph-name="idieresis" unicode="&#xef;" horiz-adv-x="230" 
d="M150 0h-70v470h70v-470zM64 536h-141v66h141v-66zM308 536h-141v66h141v-66z" />
    <glyph glyph-name="ntilde" unicode="&#xf1;" horiz-adv-x="723" 
d="M150 373q23 68 77 86t144 18h9q74 0 123.5 -8t85 -36t45 -63t9.5 -87v-283h-70v276q0 88 -47 113.5t-146 25.5q-113 0 -171.5 -25.5t-58.5 -124.5v-265h-70v470h70v-97zM274 624q25 0 83 -21.5t83 -21.5q19 0 31 13t19 33h63q-5 -47 -32.5 -76.5t-72.5 -29.5
q-34 0 -88.5 20.5t-80.5 20.5q-19 0 -29 -11t-18 -34h-63q5 44 33.5 75.5t71.5 31.5z" />
    <glyph glyph-name="oacute" unicode="&#xf3;" horiz-adv-x="750" 
d="M370 476q120 0 180 -12t96.5 -61t36.5 -159q0 -167 -64 -209t-250 -42q-165 0 -234 41t-69 196q0 110 32 168.5t100 67t99 9.5t73 1zM370 55q132 0 185.5 23t53.5 135q0 87 -18.5 136t-71 56t-84 8t-74.5 1h-21q-116 0 -157.5 -31t-41.5 -148q0 -112 43 -146.5t159 -34.5
zM513 559l-262 -43l-15 43l251 83z" />
    <glyph glyph-name="ograve" unicode="&#xf2;" horiz-adv-x="750" 
d="M370 476q120 0 180 -12t96.5 -61t36.5 -159q0 -167 -64 -209t-250 -42q-165 0 -234 41t-69 196q0 110 32 168.5t100 67t99 9.5t73 1zM370 55q132 0 185.5 23t53.5 135q0 87 -18.5 136t-71 56t-84 8t-74.5 1h-21q-116 0 -157.5 -31t-41.5 -148q0 -112 43 -146.5t159 -34.5
zM236 559l26 83l251 -83l-16 -43z" />
    <glyph glyph-name="ocircumflex" unicode="&#xf4;" horiz-adv-x="750" 
d="M370 476q120 0 180 -12t96.5 -61t36.5 -159q0 -167 -64 -209t-250 -42q-165 0 -234 41t-69 196q0 110 32 168.5t100 67t99 9.5t73 1zM370 55q132 0 185.5 23t53.5 135q0 87 -18.5 136t-71 56t-84 8t-74.5 1h-21q-116 0 -157.5 -31t-41.5 -148q0 -112 43 -146.5t159 -34.5
zM181 555l193 83l193 -83l-12 -39l-181 45l-180 -45z" />
    <glyph glyph-name="odieresis" unicode="&#xf6;" horiz-adv-x="750" 
d="M370 476q120 0 180 -12t96.5 -61t36.5 -159q0 -167 -64 -209t-250 -42q-165 0 -234 41t-69 196q0 110 32 168.5t100 67t99 9.5t73 1zM370 55q132 0 185.5 23t53.5 135q0 87 -18.5 136t-71 56t-84 8t-74.5 1h-21q-116 0 -157.5 -31t-41.5 -148q0 -112 43 -146.5t159 -34.5
zM323 536h-141v66h141v-66zM567 536h-141v66h141v-66z" />
    <glyph glyph-name="otilde" unicode="&#xf5;" horiz-adv-x="750" 
d="M370 476q120 0 180 -12t96.5 -61t36.5 -159q0 -167 -64 -209t-250 -42q-165 0 -234 41t-69 196q0 110 32 168.5t100 67t99 9.5t73 1zM370 55q132 0 185.5 23t53.5 135q0 87 -18.5 136t-71 56t-84 8t-74.5 1h-21q-116 0 -157.5 -31t-41.5 -148q0 -112 43 -146.5t159 -34.5
zM287 623q25 0 83 -21.5t83 -21.5q19 0 31 13t19 33h63q-5 -47 -32.5 -76.5t-72.5 -29.5q-34 0 -88.5 20.5t-80.5 20.5q-19 0 -29 -11t-18 -34h-63q5 44 33.5 75.5t71.5 31.5z" />
    <glyph glyph-name="uacute" unicode="&#xfa;" horiz-adv-x="724" 
d="M575 91q-18 -46 -65 -72t-150 -26q-170 0 -224.5 47t-54.5 139v15v276h70v-257q0 -103 43.5 -130.5t153.5 -27.5q115 0 171 27.5t56 130.5v257h70v-470h-70v91zM501 559l-262 -43l-15 43l251 83z" />
    <glyph glyph-name="ugrave" unicode="&#xf9;" horiz-adv-x="724" 
d="M575 91q-18 -46 -65 -72t-150 -26q-170 0 -224.5 47t-54.5 139v15v276h70v-257q0 -103 43.5 -130.5t153.5 -27.5q115 0 171 27.5t56 130.5v257h70v-470h-70v91zM224 559l26 83l251 -83l-16 -43z" />
    <glyph glyph-name="ucircumflex" unicode="&#xfb;" horiz-adv-x="724" 
d="M575 91q-18 -46 -65 -72t-150 -26q-170 0 -224.5 47t-54.5 139v15v276h70v-257q0 -103 43.5 -130.5t153.5 -27.5q115 0 171 27.5t56 130.5v257h70v-470h-70v91zM170 555l193 83l193 -83l-12 -39l-181 45l-180 -45z" />
    <glyph glyph-name="udieresis" unicode="&#xfc;" horiz-adv-x="724" 
d="M575 91q-18 -46 -65 -72t-150 -26q-170 0 -224.5 47t-54.5 139v15v276h70v-257q0 -103 43.5 -130.5t153.5 -27.5q115 0 171 27.5t56 130.5v257h70v-470h-70v91zM311 536h-141v66h141v-66zM555 536h-141v66h141v-66z" />
    <glyph glyph-name="dagger" unicode="&#x2020;" horiz-adv-x="931" 
d="M803 460v-63h-300v-611h-75v611h-300v63h300v207h75v-207h300z" />
    <glyph glyph-name="degree" unicode="&#xb0;" 
d="M109 519q0 60 40 102t101 42q59 0 100 -42t41 -100t-42 -99t-100 -41q-56 0 -98 41t-42 97zM145 520q0 -41 31 -72t73 -31q44 0 74.5 30.5t30.5 74.5q0 43 -30 74t-74 31t-74.5 -31.5t-30.5 -75.5z" />
    <glyph glyph-name="cent" unicode="&#xa2;" horiz-adv-x="840" 
d="M464 681v-97q149 0 197 -43.5t48 -126.5h-73q0 70 -45 89.5t-127 19.5v-359q88 0 134 19.5t46 92.5h70q0 -107 -65 -141t-185 -34v-110h-63v110q-149 0 -212 41t-63 183q0 44 1.5 74t11.5 82.5t81 78t166 25.5l15 -1v97h63zM201 342q0 -107 35.5 -142.5t142.5 -35.5h22
v359l-30 -1q-102 0 -136 -35t-34 -145z" />
    <glyph glyph-name="sterling" unicode="&#xa3;" horiz-adv-x="840" 
d="M546 259h-334v-60q0 -55 -8 -79.5t-44 -50.5h680v-69h-790v69q48 7 65 36t17 82v72h-117v69h117v155q0 112 63 150t180 38l104 2l193 -5q80 -8 109 -51.5t29 -126.5v-23h-79v19q0 63 -13.5 87.5t-72.5 24.5l-169 5l-146 -8q-65 -6 -91.5 -33t-26.5 -98v-19v-117h334v-69z
" />
    <glyph glyph-name="section" unicode="&#xa7;" horiz-adv-x="931" 
d="M659 585q-31 12 -78 16.5t-91 4.5q-52 0 -87.5 -1.5t-69.5 -6.5q-48 -9 -73 -25.5t-25 -58.5q0 -43 34 -59t155.5 -42l211.5 -45t132.5 -49.5t42.5 -104.5q0 -46 -25.5 -78t-70.5 -43q47 -14 68.5 -51t21.5 -91q0 -43 -19 -79.5t-63.5 -56.5t-110.5 -28t-140 -8
q-80 0 -144.5 8.5t-116.5 32t-71.5 68.5t-19.5 104h76q0 -40 6.5 -62.5t39 -43.5t96.5 -30.5t131 -9.5q64 0 111.5 5t101 22.5t53.5 81.5q0 57 -38 72t-143 38l-119 28l-130 27q-77 19 -120.5 52.5t-43.5 101.5q0 45 26 78t70 44q-35 15 -54 46.5t-19 71.5q0 42 18.5 76
t63 53t101 24.5t143.5 5.5q79 0 148.5 -10.5t97.5 -36t36.5 -51.5t8.5 -57h-75q0 48 -47 67zM334 189l297 -64q51 7 80 25.5t29 64.5q0 39 -22 57.5t-65 27.5l-319 67q-51 0 -86.5 -19.5t-35.5 -67.5q0 -41 34.5 -60.5t87.5 -30.5z" />
    <glyph glyph-name="bullet" unicode="&#x2022;" horiz-adv-x="600" 
d="M392 286q0 -40 -28 -68t-70 -28q-40 0 -68 28t-28 68t28 68t68 28t69 -28t29 -68z" />
    <glyph glyph-name="paragraph" unicode="&#xb6;" horiz-adv-x="551" 
d="M27 489q0 92 61 135t156 43h235v-34h-59v-746h-42v746h-109v-746h-41v426q-88 0 -144.5 45t-56.5 131z" />
    <glyph glyph-name="germandbls" unicode="&#xdf;" horiz-adv-x="746" 
d="M80 469q0 84 28.5 133t80 58t93 11t77.5 2q78 0 117 -2t78.5 -13t57.5 -40t18 -76q0 -53 -18 -78.5t-68 -39.5q78 -7 106.5 -51t28.5 -125q0 -147 -40 -201t-188 -54q-116 0 -171.5 30t-55.5 136l1 20h71l-1 -15q0 -67 29 -88t99 -21q107 0 144.5 31.5t37.5 133.5
q0 100 -29.5 137t-124.5 37h-186v60h187q53 0 78 16t25 65q0 41 -19 57t-62 16l-138 3q-54 0 -89.5 -4t-57.5 -21q-26 -18 -32.5 -51.5t-6.5 -80.5v-454h-70v469z" />
    <glyph glyph-name="registered" unicode="&#xae;" horiz-adv-x="783" 
d="M548 422q0 -35 -19 -61t-53 -38q58 -18 64.5 -97.5t12.5 -92.5h-48q-5 9 -7 20.5t-2 23.5v30q0 56 -18 77.5t-88 21.5h-97v-173h-49v394h165q59 0 99 -24.5t40 -80.5zM392 338q47 0 77 18t30 63q0 41 -27.5 57.5t-71.5 16.5h-107v-155h99zM392 -12q-143 0 -244 101
t-101 244t101 244t244 101q142 0 243 -101t101 -244q0 -141 -101 -243t-243 -102zM392 26q125 0 213.5 90.5t88.5 216.5t-88.5 216.5t-213.5 90.5q-126 0 -215 -90t-89 -217q0 -125 89 -216t215 -91z" />
    <glyph glyph-name="copyright" unicode="&#xa9;" horiz-adv-x="783" 
d="M203 332q0 88 52.5 147.5t139.5 59.5q66 0 117 -36.5t58 -100.5h-40q-10 44 -49 69t-87 25q-66 0 -103.5 -48t-37.5 -116q0 -67 37.5 -113t103.5 -46q58 0 96 32.5t46 89.5h40q0 -73 -52.5 -119t-129.5 -46q-85 0 -138 58t-53 144zM392 -12q-142 0 -243.5 101.5
t-101.5 243.5q0 143 101 244t244 101q142 0 243 -101t101 -244q0 -141 -101 -243t-243 -102zM392 26q125 0 213.5 90.5t88.5 216.5t-88.5 216.5t-213.5 90.5t-214.5 -90.5t-89.5 -216.5q0 -125 89 -216t215 -91z" />
    <glyph glyph-name="trademark" unicode="&#x2122;" horiz-adv-x="1268" 
d="M208 267v354h-208v46h476v-46h-210v-354h-58zM849 267l-252 345v-345h-58v400h89l244 -334l246 334h87v-400h-58v345l-253 -345h-45z" />
    <glyph glyph-name="acute" unicode="&#xb4;" 
d="M389 560l-262 -43l-15 43l251 83z" />
    <glyph glyph-name="dieresis" unicode="&#xa8;" 
d="M198 537h-141v66h141v-66zM442 537h-141v66h141v-66z" />
    <glyph glyph-name="AE" unicode="&#xc6;" horiz-adv-x="1380" 
d="M1289 379v-67h-547v-245h571v-67h-652v145h-473l-115 -145h-106l533 667h813v-68h-571v-220h547zM546 599l-305 -386h420v386h-115z" />
    <glyph glyph-name="Oslash" unicode="&#xd8;" horiz-adv-x="1005" 
d="M960 598l-52 -35q9 -24 14 -43.5t5 -39.5l3 -147v-24q0 -63 -3 -97.5t-13.5 -92t-64 -89t-147.5 -31.5l-204 -6l-166 3q-69 0 -115 11t-87 47l-86 -58v80l53 35q-13 49 -17.5 102.5t-4.5 118.5q0 64 1.5 96t13 107.5t73 105.5t180.5 30l160 2l166 -2q76 0 120.5 -8.5
t83.5 -43.5l87 57v-78zM575 603l-71 -1l-117 -1q-58 0 -89.5 -2t-65 -11.5t-47.5 -36t-19 -67t-6 -70.5t-1 -80q0 -58 1.5 -96.5t7.5 -80.5l637 417q-32 24 -72 24zM500 64l148 1h15q39 0 58.5 1.5t49.5 10t46.5 34t21.5 60.5t6 63t1 66v80q0 51 -1.5 75.5t-8.5 59.5
l-637 -416q37 -31 87 -31z" />
    <glyph glyph-name="plusminus" unicode="&#xb1;" 
d="M229 566h43v-193h205v-41h-205v-189h-43v189h-205v41h205v193zM477 57h-453v41h453v-41z" />
    <glyph glyph-name="yen" unicode="&#xa5;" horiz-adv-x="810" 
d="M830 667l-226 -225h114v-34h-149l-123 -122h172v-38h-173v-248h-81v248h-164v38h162l-120 122h-142v34h108l-228 225h115l309 -313l311 313h115z" />
    <glyph glyph-name="mu" unicode="&#xb5;" horiz-adv-x="534" 
d="M133 478v-271q0 -73 30 -118t101 -45q64 0 101 53t37 120v261h70v-478h-70v93q-20 -48 -55 -76.5t-84 -28.5q-83 0 -130 74v-228h-70v644h70z" />
    <glyph glyph-name="ordfeminine" unicode="&#xaa;" horiz-adv-x="347" 
d="M34 292v38h292v-38h-292zM242 434q-23 -29 -45 -42t-57 -13q-43 0 -73 20.5t-30 62.5q0 70 101.5 84t101.5 43q0 28 -20.5 42t-50.5 14q-67 0 -73 -65h-44q0 50 33 74.5t87 24.5q53 0 83.5 -25.5t30.5 -79.5l1 -112q0 -26 2.5 -43t13.5 -32h-53q-8 20 -8 47zM146 411
q54 0 75 34.5t21 90.5q-14 -8 -88 -14.5t-74 -58.5q0 -26 19.5 -39t46.5 -13z" />
    <glyph glyph-name="ordmasculine" unicode="&#xba;" horiz-adv-x="347" 
d="M28 292v38h292v-38h-292zM173 379q-65 0 -102.5 43.5t-37.5 110.5q0 63 40.5 104.5t103.5 41.5q62 0 100.5 -43.5t38.5 -105.5q0 -67 -38 -109t-105 -42zM174 414q47 0 70.5 34t23.5 83q0 47 -23.5 80t-69.5 33t-70 -32.5t-24 -80.5q0 -50 22.5 -83.5t70.5 -33.5z" />
    <glyph glyph-name="ae" unicode="&#xe6;" horiz-adv-x="1228" 
d="M843 55l86 -1q77 0 119.5 15.5t42.5 76.5h70q0 -97 -78.5 -125t-200.5 -28h-30q-72 0 -118.5 5.5t-79.5 26t-47 59.5q-10 -29 -25 -46t-39.5 -27.5t-64.5 -14t-88 -3.5h-56h-18q-63 0 -128.5 7t-96.5 36.5t-31 97.5q0 50 13 84t45.5 46.5t73.5 16t90 3.5h55
q31 0 59.5 -0.5t66.5 -4.5t63 -17t44 -44v45q0 67 -18.5 102t-63.5 41t-72 7t-64 1h-18h-17q-47 0 -70.5 -1.5t-47.5 -10t-32.5 -25.5t-8.5 -43h-76q0 65 27 95.5t72 37.5t83.5 8t71.5 1q75 0 123 -3t80 -15t47 -30t21 -48q6 28 19.5 43t46 29t76 19t97.5 5q164 0 240 -35.5
t76 -178.5l-2 -51h-519q0 -100 46.5 -128t155.5 -28zM946 413l-92 1q-46 0 -82 -2.5t-67 -13.5t-47.5 -46t-16.5 -81h452q0 40 -4.5 63.5t-23 44t-50 27.5t-69.5 7zM336 55l134 3q45 0 72 18t27 60q0 36 -20.5 55.5t-58 24t-72.5 5.5t-81 1l-117 -3q-45 0 -65 -18.5
t-20 -63.5q0 -42 21.5 -60.5t65.5 -18.5z" />
    <glyph glyph-name="oslash" unicode="&#xf8;" horiz-adv-x="749" 
d="M704 412l-43 -30q12 -30 16.5 -70t4.5 -81q0 -110 -34 -166t-138 -65q-36 -5 -66 -6t-78 -1q-50 0 -88 2.5t-78 10t-78 37.5l-73 -47v61l42 27q-12 22 -18.5 56.5t-6.5 96.5q0 143 59.5 191t206.5 48q85 0 126 -1.5t88.5 -9.5t82.5 -41l75 47v-59zM370 414q-48 0 -114 -6
t-90.5 -47.5t-24.5 -123.5q0 -39 2.5 -63.5t12.5 -49.5l408 258q-26 20 -64 25zM369 55h18q48 0 72 1.5t70.5 11t62 49.5t15.5 115q0 33 -2.5 59t-10.5 50l-405 -257q26 -17 52 -21t63 -6t65 -2z" />
    <glyph glyph-name="questiondown" unicode="&#xbf;" horiz-adv-x="740" 
d="M358 470h105v-114h-105v114zM250 101q-70 -8 -94 -33t-24 -92q0 -56 25.5 -82.5t81.5 -26.5l141 -6l117 2q53 0 80.5 19.5t27.5 68.5l1 39l1 22h76l1 -57q0 -65 -26 -104t-70.5 -45.5t-80.5 -8.5t-68 -2l-61 1h-37.5t-37.5 -1q-154 0 -200 48t-46 145q0 80 29.5 117
t67.5 47t112.5 21t90.5 26t16 54h75q0 -73 -30.5 -103.5t-167.5 -48.5z" />
    <glyph glyph-name="exclamdown" unicode="&#xa1;" horiz-adv-x="265" 
d="M80 470h105v-114h-105v114zM98 269h73l5 -466h-84z" />
    <glyph glyph-name="logicalnot" unicode="&#xac;" 
d="M33 210v67h433v-277h-73v210h-360z" />
    <glyph glyph-name="florin" unicode="&#x192;" horiz-adv-x="840" 
d="M485 444l-78 -439q-13 -74 -46 -106t-106 -32h-143v69h121q58 0 75.5 16.5t27.5 73.5l72 418h-140v60h152l23 129q10 51 46.5 76t90.5 25h162v-69h-155q-34 0 -51 -17t-23 -52l-17 -92h183v-60h-194z" />
    <glyph glyph-name="guillemotleft" unicode="&#xab;" horiz-adv-x="528" 
d="M206 -8l-150 254l150 250l52 -35l-128 -215l128 -220zM419 -8l-150 254l150 250l52 -35l-128 -215l128 -220z" />
    <glyph glyph-name="guillemotright" unicode="&#xbb;" horiz-adv-x="528" 
d="M321 500l150 -254l-150 -250l-52 36l127 214l-127 220zM108 500l150 -254l-150 -250l-52 36l127 214l-127 220z" />
    <glyph glyph-name="ellipsis" unicode="&#x2026;" horiz-adv-x="1130" 
d="M238 0h-100v109h100v-109zM615 0h-100v109h100v-109zM991 0h-100v109h100v-109z" />
    <glyph glyph-name="nonbreakingspace" unicode="&#xa0;" horiz-adv-x="250" 
 />
    <glyph glyph-name="Agrave" unicode="&#xc0;" horiz-adv-x="859" 
d="M75 0h-95l394 667h108l397 -667h-93l-87 150h-539zM198 217h463l-233 391zM291 756l26 83l251 -83l-16 -43z" />
    <glyph glyph-name="Atilde" unicode="&#xc3;" horiz-adv-x="859" 
d="M75 0h-95l394 667h108l397 -667h-93l-87 150h-539zM198 217h463l-233 391zM343 814q25 0 83 -21.5t83 -21.5q19 0 31 13t19 33h63q-5 -47 -32.5 -76.5t-72.5 -29.5q-34 0 -88.5 20.5t-80.5 20.5q-19 0 -29 -11t-18 -34h-63q5 44 33.5 75.5t71.5 31.5z" />
    <glyph glyph-name="Otilde" unicode="&#xd5;" horiz-adv-x="1003" 
d="M310 672l295 2q208 0 266.5 -55.5t58.5 -258.5v-24v-21q0 -72 -8.5 -151.5t-57 -122.5t-145.5 -43q-30 -3 -76.5 -4t-88.5 -1h-149h-18q-61 0 -117.5 6t-95 22t-63 55.5t-31.5 102.5t-7 149q0 81 2 116.5t16.5 101.5t70.5 96t148 30zM327 67l172 -3h62h21q71 0 143 7
t95.5 47.5t23.5 121.5l2 137q0 63 -5 109.5t-22 71t-44.5 32t-56 10t-60.5 2.5l-157 1l-155 -3q-114 0 -150 -29.5t-36 -139.5l-3 -100v-49q0 -126 27 -170.5t143 -44.5zM414 814q25 0 83 -21.5t83 -21.5q19 0 31 13t19 33h63q-5 -47 -32.5 -76.5t-72.5 -29.5
q-34 0 -88.5 20.5t-80.5 20.5q-19 0 -29 -11t-18 -34h-63q5 44 33.5 75.5t71.5 31.5z" />
    <glyph glyph-name="OE" unicode="&#x152;" horiz-adv-x="1542" 
d="M1450 373v-68h-539v-238h567v-67h-649v84q-10 -36 -35 -57t-54 -25.5t-56 -6t-58 -1.5l-149 -1l-188 5q-139 0 -176 68t-37 231v30q0 70 2.5 108.5t11.5 95.5t52.5 91t109 41.5t103 8.5t97.5 1h25h92q28 0 57 -1l58 -2q56 0 95 -18.5t50 -67.5v83h640v-68h-558v-226h539z
M197 101q17 -18 41 -24.5t50.5 -9t58 -3t51.5 -0.5h81h165q71 0 115 15.5t52.5 59t12.5 93t4 133.5q0 60 -6 113.5t-22.5 76t-47 35.5t-92.5 13l-110 -1h-76q-51 0 -98.5 -0.5t-93 -5t-67.5 -17.5t-33 -42q-10 -31 -16 -77t-6 -131v-40q0 -83 9.5 -125.5t27.5 -62.5z" />
    <glyph glyph-name="oe" unicode="&#x153;" horiz-adv-x="1266" 
d="M680 187q0 -60 31 -90t91.5 -36t117.5 -6h30q16 0 35.5 0.5t59 5t62.5 23.5t23 62h72q0 -33 -10 -59t-39.5 -52t-90 -34t-141.5 -8h-21q-61 0 -88 1.5t-66 9.5t-65 28t-37 56q-14 -43 -50.5 -63.5t-75 -25t-76 -5.5t-71.5 -1q-166 0 -233.5 40t-67.5 192q0 101 22.5 160
t75 73t89.5 16.5t77 2.5h40q37 0 73 -0.5t81.5 -7.5t73.5 -27.5t42 -63.5q16 47 54 68.5t83 26t79 4.5h21h43q151 0 214.5 -38t63.5 -177v-50h-521zM954 415h-33q-85 0 -104 -1.5t-56.5 -10.5t-59 -39.5t-21.5 -74.5l1 -17h453q0 53 -15.5 86t-48 43t-61 12t-55.5 2zM373 55
h17q55 0 82.5 1.5t62.5 12t54.5 50.5t19.5 92q0 75 -13.5 122.5t-53.5 62t-80.5 17t-88.5 2.5q-55 0 -93 -3t-75 -16.5t-46.5 -46.5t-12 -60.5t-2.5 -62.5q0 -70 21 -113t68 -49.5t72.5 -7.5t67.5 -1z" />
    <glyph glyph-name="endash" unicode="&#x2013;" horiz-adv-x="840" 
d="M756 245h-672v66h672v-66z" />
    <glyph glyph-name="emdash" unicode="&#x2014;" horiz-adv-x="999" 
d="M989 245h-979v66h979v-66z" />
    <glyph glyph-name="quotedblleft" unicode="&#x201c;" horiz-adv-x="571" 
d="M327 558q0 50 25 82.5t74 32.5l14 -1v-52q-22 -5 -35.5 -14t-13.5 -29l2 -12h34v-111h-100v104zM132 559q0 49 25.5 82t73.5 33l14 -1v-52q-22 -5 -35 -13.5t-13 -27.5v-5l1 -8h35v-112h-101v104z" />
    <glyph glyph-name="quotedblright" unicode="&#x201d;" horiz-adv-x="571" 
d="M244 563q0 -51 -24.5 -83t-74.5 -32l-14 1v52q24 5 36.5 14t12.5 29l-1 11h-35v112h100v-104zM439 562q0 -115 -113 -115v53q22 5 35 13.5t13 27.5l-1 13h-35v112h101v-104z" />
    <glyph glyph-name="quoteleft" unicode="&#x2018;" horiz-adv-x="377" 
d="M132 559q0 49 25.5 82t73.5 33l14 -1v-52q-22 -5 -35 -13.5t-13 -27.5l1 -14h35v-111h-101v104z" />
    <glyph glyph-name="quoteright" unicode="&#x2019;" horiz-adv-x="377" 
d="M245 563q0 -115 -113 -115v53q24 5 36.5 14t12.5 29l-1 11h-35v112h100v-104z" />
    <glyph glyph-name="divide" unicode="&#xf7;" 
d="M477 320h-453v41h453v-41zM251 486q-16 0 -27.5 11.5t-11.5 27.5t11.5 27.5t27.5 11.5t27 -11t11 -28q0 -15 -11 -27t-27 -12zM250 117q-15 0 -26.5 11.5t-11.5 26.5t11 27t27 12q17 0 28 -11t11 -28q0 -16 -11 -27t-28 -11z" />
    <glyph glyph-name="ydieresis" unicode="&#xff;" horiz-adv-x="566" 
d="M586 470l-261 -509q-53 -102 -94 -143t-133 -41l-36 1v57l20 -1q73 0 102 36t80 135h-27l-264 465h81l236 -416l214 416h82zM231 536h-141v66h141v-66zM475 536h-141v66h141v-66z" />
    <glyph glyph-name="Ydieresis" unicode="&#x178;" horiz-adv-x="810" 
d="M830 667l-385 -383v-284h-81v284l-384 383h115l309 -313l311 313h115zM354 733h-141v66h141v-66zM598 733h-141v66h141v-66z" />
    <glyph glyph-name="fraction" horiz-adv-x="222" 
d="M-136 0h-61l555 667h60z" />
    <glyph glyph-name="currency" unicode="&#xa4;" horiz-adv-x="687" 
d="M112 342q0 38 12.5 70.5t37.5 69.5l-95 93l41 41l94 -94q37 25 70.5 37.5t72.5 12.5q36 0 70 -13t69 -36l94 93l41 -41l-93 -93q25 -34 37 -68t12 -73q0 -37 -12 -70.5t-36 -68.5l93 -93l-40 -41l-93 93q-66 -50 -144 -50q-37 0 -70.5 13t-70.5 37l-92 -93l-41 41l91 93
q-48 64 -48 140zM344 177q67 0 115.5 48.5t48.5 116.5t-48 117t-116 49t-116.5 -48.5t-48.5 -117.5q0 -68 48.5 -116.5t116.5 -48.5z" />
    <glyph glyph-name="guilsinglleft" unicode="&#x2039;" horiz-adv-x="315" 
d="M206 -8l-150 254l150 250l52 -35l-128 -215l128 -220z" />
    <glyph glyph-name="guilsinglright" unicode="&#x203a;" horiz-adv-x="315" 
d="M108 500l150 -254l-150 -250l-52 36l127 214l-127 220z" />
    <glyph glyph-name="fi" horiz-adv-x="607" 
d="M404 409h-236v-409h-70v409h-105v60h105v40q0 89 46 125.5t140 36.5l120 2v-60h-96q-74 0 -107 -18t-33 -86v-40h236v-60zM527 0h-70v470h70v-470zM527 585h-70v88h70v-88z" />
    <glyph glyph-name="fl" horiz-adv-x="607" 
d="M404 409h-236v-409h-70v409h-105v60h105v40q0 89 46 125.5t140 36.5l120 2v-60h-96q-74 0 -107 -18t-33 -86v-40h236v-60zM527 0h-70v673h70v-673z" />
    <glyph glyph-name="daggerdbl" unicode="&#x2021;" horiz-adv-x="931" 
d="M803 460v-63h-300v-327h300v-64h-300v-220h-75v220h-300v64h300v327h-300v63h300v207h75v-207h300z" />
    <glyph glyph-name="periodcentered" unicode="&#xb7;" horiz-adv-x="840" 
d="M470 189h-100v109h100v-109z" />
    <glyph glyph-name="periodcentered" unicode="&#x2219;" horiz-adv-x="840" 
d="M470 189h-100v109h100v-109z" />
    <glyph glyph-name="quotesinglbase" unicode="&#x201a;" horiz-adv-x="377" 
d="M245 8q0 -115 -113 -115v53q24 5 36.5 14t12.5 29l-1 11h-35v112h100v-104z" />
    <glyph glyph-name="quotedblbase" unicode="&#x201e;" horiz-adv-x="571" 
d="M245 10q0 -51 -24.5 -83t-74.5 -32l-14 1v52q24 5 36.5 14t12.5 29l-1 11h-35v112h100v-104zM440 9q0 -115 -113 -115v53q22 5 35 13.5t13 27.5l-1 13h-35v112h101v-104z" />
    <glyph glyph-name="perthousand" unicode="&#x2030;" horiz-adv-x="1430" 
d="M254 669q107 0 138.5 -25.5t31.5 -137.5q0 -118 -28 -147t-132 -29h-125q-77 0 -97.5 38.5t-20.5 126.5q0 121 30.5 147.5t143.5 26.5h59zM149 371l154 1q23 0 36.5 3t22.5 15.5t11.5 39.5t2.5 61q0 104 -22 121t-129 17l-74 -2q-52 0 -66.5 -18t-14.5 -100v-13
q0 -35 1.5 -60.5t9.5 -40t26.5 -19.5t41.5 -5zM235 0h-52l554 666h53zM781 336q107 0 138.5 -25.5t31.5 -137.5q0 -122 -28.5 -149.5t-141.5 -27.5l-115 1q-77 0 -97.5 38.5t-20.5 126.5q0 122 31 148t148 26h54zM607 63q9 -15 27 -20t42 -5l72 -1l75 1q24 0 40 3t25 15
t11.5 36.5t2.5 56.5v39q0 31 -2.5 53t-12 33.5t-37 16t-61.5 4.5h-37l-74 -2q-54 0 -67.5 -19t-13.5 -88v-23v-13q0 -35 1.5 -54.5t8.5 -32.5zM1239 336q106 0 138.5 -26t32.5 -137q0 -122 -28.5 -149.5t-141.5 -27.5l-115 1q-78 0 -98.5 38.5t-20.5 126.5q0 122 31 148
t148 26h54zM1134 38l72 -1l76 1q23 0 39.5 3t25.5 15t11.5 36.5t2.5 56.5v30q0 33 -3 58t-12 37t-25 15.5t-36 3.5l-74 2l-80 -2q-24 0 -40 -4t-23.5 -18.5t-10 -40.5t-2.5 -55v-12q0 -36 1.5 -61t9.5 -39.5t26.5 -19.5t41.5 -5z" />
    <glyph glyph-name="Acircumflex" unicode="&#xc2;" horiz-adv-x="859" 
d="M75 0h-95l394 667h108l397 -667h-93l-87 150h-539zM198 217h463l-233 391zM237 746l193 83l193 -83l-12 -39l-181 45l-180 -45z" />
    <glyph glyph-name="Ecircumflex" unicode="&#xca;" horiz-adv-x="828" 
d="M733 379v-67h-559v-245h587v-67h-668v667h661v-68h-580v-220h559zM221 746l193 83l193 -83l-12 -39l-181 45l-180 -45z" />
    <glyph glyph-name="Aacute" unicode="&#xc1;" horiz-adv-x="859" 
d="M75 0h-95l394 667h108l397 -667h-93l-87 150h-539zM198 217h463l-233 391zM568 756l-262 -43l-15 43l251 83z" />
    <glyph glyph-name="Edieresis" unicode="&#xcb;" horiz-adv-x="828" 
d="M733 379v-67h-559v-245h587v-67h-668v667h661v-68h-580v-220h559zM362 733h-141v66h141v-66zM606 733h-141v66h141v-66z" />
    <glyph glyph-name="Egrave" unicode="&#xc8;" horiz-adv-x="828" 
d="M733 379v-67h-559v-245h587v-67h-668v667h661v-68h-580v-220h559zM275 756l26 83l251 -83l-16 -43z" />
    <glyph glyph-name="Iacute" unicode="&#xcd;" horiz-adv-x="267" 
d="M174 0h-81v667h81v-667zM272 756l-262 -43l-15 43l251 83z" />
    <glyph glyph-name="Icircumflex" unicode="&#xce;" horiz-adv-x="267" 
d="M174 0h-81v667h81v-667zM-60 746l193 83l193 -83l-12 -39l-181 45l-180 -45z" />
    <glyph glyph-name="Idieresis" unicode="&#xcf;" horiz-adv-x="267" 
d="M174 0h-81v667h81v-667zM82 733h-141v66h141v-66zM326 733h-141v66h141v-66z" />
    <glyph glyph-name="Igrave" unicode="&#xcc;" horiz-adv-x="267" 
d="M174 0h-81v667h81v-667zM-5 756l26 83l251 -83l-16 -43z" />
    <glyph glyph-name="Oacute" unicode="&#xd3;" horiz-adv-x="1003" 
d="M310 672l295 2q208 0 266.5 -55.5t58.5 -258.5v-24v-21q0 -72 -8.5 -151.5t-57 -122.5t-145.5 -43q-30 -3 -76.5 -4t-88.5 -1h-149h-18q-61 0 -117.5 6t-95 22t-63 55.5t-31.5 102.5t-7 149q0 81 2 116.5t16.5 101.5t70.5 96t148 30zM327 67l172 -3h62h21q71 0 143 7
t95.5 47.5t23.5 121.5l2 137q0 63 -5 109.5t-22 71t-44.5 32t-56 10t-60.5 2.5l-157 1l-155 -3q-114 0 -150 -29.5t-36 -139.5l-3 -100v-49q0 -126 27 -170.5t143 -44.5zM640 756l-262 -43l-15 43l251 83z" />
    <glyph glyph-name="Ocircumflex" unicode="&#xd4;" horiz-adv-x="1003" 
d="M310 672l295 2q208 0 266.5 -55.5t58.5 -258.5v-24v-21q0 -72 -8.5 -151.5t-57 -122.5t-145.5 -43q-30 -3 -76.5 -4t-88.5 -1h-149h-18q-61 0 -117.5 6t-95 22t-63 55.5t-31.5 102.5t-7 149q0 81 2 116.5t16.5 101.5t70.5 96t148 30zM327 67l172 -3h62h21q71 0 143 7
t95.5 47.5t23.5 121.5l2 137q0 63 -5 109.5t-22 71t-44.5 32t-56 10t-60.5 2.5l-157 1l-155 -3q-114 0 -150 -29.5t-36 -139.5l-3 -100v-49q0 -126 27 -170.5t143 -44.5zM308 746l193 83l193 -83l-12 -39l-181 45l-180 -45z" />
    <glyph glyph-name="Ograve" unicode="&#xd2;" horiz-adv-x="1003" 
d="M310 672l295 2q208 0 266.5 -55.5t58.5 -258.5v-24v-21q0 -72 -8.5 -151.5t-57 -122.5t-145.5 -43q-30 -3 -76.5 -4t-88.5 -1h-149h-18q-61 0 -117.5 6t-95 22t-63 55.5t-31.5 102.5t-7 149q0 81 2 116.5t16.5 101.5t70.5 96t148 30zM327 67l172 -3h62h21q71 0 143 7
t95.5 47.5t23.5 121.5l2 137q0 63 -5 109.5t-22 71t-44.5 32t-56 10t-60.5 2.5l-157 1l-155 -3q-114 0 -150 -29.5t-36 -139.5l-3 -100v-49q0 -126 27 -170.5t143 -44.5zM363 756l26 83l251 -83l-16 -43z" />
    <glyph glyph-name="Uacute" unicode="&#xda;" horiz-adv-x="958" 
d="M871 206q0 -142 -56.5 -177t-213.5 -35l-134 -1l-191 3q-99 0 -144.5 43.5t-45.5 142.5v484h81v-475q0 -80 36 -102.5t123 -22.5l143 -2l155 3q94 0 130 23t36 108v15v453h81v-460zM617 756l-262 -43l-15 43l251 83z" />
    <glyph glyph-name="Ucircumflex" unicode="&#xdb;" horiz-adv-x="958" 
d="M871 206q0 -142 -56.5 -177t-213.5 -35l-134 -1l-191 3q-99 0 -144.5 43.5t-45.5 142.5v484h81v-475q0 -80 36 -102.5t123 -22.5l143 -2l155 3q94 0 130 23t36 108v15v453h81v-460zM285 745l193 83l193 -83l-12 -39l-181 45l-180 -45z" />
    <glyph glyph-name="Ugrave" unicode="&#xd9;" horiz-adv-x="958" 
d="M871 206q0 -142 -56.5 -177t-213.5 -35l-134 -1l-191 3q-99 0 -144.5 43.5t-45.5 142.5v484h81v-475q0 -80 36 -102.5t123 -22.5l143 -2l155 3q94 0 130 23t36 108v15v453h81v-460zM340 756l26 83l251 -83l-16 -43z" />
    <glyph glyph-name="dotlessi" horiz-adv-x="230" 
d="M150 0h-70v470h70v-470z" />
    <glyph glyph-name="circumflex" unicode="&#x2c6;" 
d="M57 556l193 83l193 -83l-12 -39l-181 45l-180 -45z" />
    <glyph glyph-name="tilde" 
d="M163 624q25 0 83 -21.5t83 -21.5q19 0 31 13t19 33h63q-5 -47 -32.5 -76.5t-72.5 -29.5q-34 0 -88.5 20.5t-80.5 20.5q-19 0 -29 -11t-18 -34h-63q5 44 33.5 75.5t71.5 31.5z" />
    <glyph glyph-name="macron" 
d="M448 537h-396v66h396v-66z" />
    <glyph glyph-name="breve" 
d="M250 561q41 0 77.5 14.5t49.5 47.5h63q-15 -59 -69.5 -89t-120.5 -30q-68 0 -121 29t-69 90h63q13 -33 49 -47.5t78 -14.5z" />
    <glyph glyph-name="dotaccent" 
d="M219 569v107h62v-107h-62z" />
    <glyph glyph-name="ring" 
d="M249 510q-51 0 -92.5 15t-41.5 57t43 59.5t91 17.5q51 0 93 -17t42 -60q0 -42 -42 -57t-93 -15zM246 551h4q45 0 66.5 7.5t21.5 24.5q0 18 -21.5 27t-67.5 9q-34 0 -61 -6t-27 -29q0 -20 27 -26.5t58 -6.5z" />
    <glyph glyph-name="cedilla" unicode="&#xb8;" 
d="M334 -76l-148 -40l-20 40l135 61z" />
    <glyph glyph-name="hungarumlaut" 
d="M170 549l77 134h63l-97 -134h-43zM304 549l76 134h64l-97 -134h-43z" />
    <glyph glyph-name="ogonek" 
d="M223 -82q0 -23 20.5 -34t45.5 -11q9 0 20 2t23 5v-44q-30 -5 -55 -5q-42 0 -76 18t-34 57q0 32 21 54t57 40h63q-49 -26 -67 -44t-18 -38z" />
    <glyph glyph-name="caron" 
d="M443 633l-193 -83l-193 83l12 39l181 -45l180 45z" />
    <glyph glyph-name="Lslash" horiz-adv-x="721" 
d="M13 356l80 53v258h81v-215l240 157v-79l-240 -158v-305h527v-67h-608v329l-80 -52v79z" />
    <glyph glyph-name="lslash" horiz-adv-x="230" 
d="M230 429l-80 -51v-378h-70v344l-80 -51v61l80 51v268h70v-234l80 51v-61z" />
    <glyph glyph-name="Scaron" unicode="&#x160;" horiz-adv-x="905" 
d="M701 580q-21 10 -76 16.5t-142 6.5h-28q-66 0 -136.5 -6t-102.5 -20t-41 -38t-9 -58q0 -61 33.5 -83t97.5 -22l73 -2l157 1q41 0 73 -1t96.5 -8t104 -45.5t39.5 -131.5q0 -61 -19 -101.5t-64.5 -61t-110 -26.5t-140.5 -6h-53q-75 0 -112.5 1.5t-115 11.5t-110.5 52.5
t-33 148.5h81v-14q0 -51 9.5 -75.5t49 -36t105.5 -15t130 -3.5q104 0 175.5 9t97.5 34t26 82q0 72 -33.5 91.5t-113.5 19.5l-153 2l-179 5q-94 0 -145 36t-51 122q0 68 22 113.5t74.5 65t123.5 25t159 5.5q73 0 105.5 -1.5t106 -9t112.5 -50.5t39 -131h-81q0 45 -10.5 67
t-30.5 31zM654 784l-193 -83l-193 83l12 39l181 -45l180 45z" />
    <glyph glyph-name="scaron" unicode="&#x161;" horiz-adv-x="713" 
d="M489 411l-138 4q-44 0 -71.5 -1t-62 -6t-55 -18.5t-20.5 -45.5q0 -43 21.5 -56.5t67.5 -13.5l121 -3h131q87 0 129 -27.5t42 -108.5q0 -93 -49.5 -116.5t-152.5 -23.5l-131 -2q-60 0 -91.5 1.5t-78 11t-68.5 41t-22 91.5l1 21h71l1 -11q0 -48 20 -66t70 -23l123 -4h21h18
q62 0 111 5.5t65.5 18t16.5 45.5q0 50 -24.5 68t-78.5 18l-127 1h-121q-79 0 -120 25t-41 100q0 70 40 102.5t111 32.5l133 6q37 0 72 -0.5t79 -4.5q73 0 103.5 -30.5t30.5 -102.5h-70q-4 40 -18.5 53.5t-58.5 18.5zM551 633l-193 -83l-193 83l12 39l181 -45l180 45z" />
    <glyph glyph-name="Zcaron" horiz-adv-x="824" 
d="M797 0h-771v67l633 532h-605v68h732v-68l-634 -532h645v-67zM604 784l-193 -83l-193 83l12 39l181 -45l180 45z" />
    <glyph glyph-name="zcaron" horiz-adv-x="597" 
d="M135 60h429v-60h-530v71l431 342h-411v60h510v-70zM492 633l-193 -83l-193 83l12 39l181 -45l180 45z" />
    <glyph glyph-name="brokenbar" unicode="&#xa6;" 
d="M288 333h-76v333h76v-333zM288 -167h-76v320h76v-320z" />
    <glyph glyph-name="Eth" unicode="&#xd0;" horiz-adv-x="989" 
d="M626 66q140 0 173.5 61t33.5 214q0 140 -34.5 198.5t-164.5 58.5h-458l1 -233h68v-67h-69v-232h450zM652 665q162 0 213.5 -75t51.5 -248q0 -89 -14 -165.5t-53 -116.5t-94 -50.5t-131 -10.5h-8h-522v299h-59v67h59v302z" />
    <glyph glyph-name="eth" unicode="&#xf0;" horiz-adv-x="524" 
d="M246 628l92 67l20 -27l-78 -57q103 -66 155 -155t52 -209q0 -110 -60 -185.5t-168 -75.5q-103 0 -163 71.5t-60 177.5q0 100 57 169.5t156 69.5q33 0 67 -14.5t57 -37.5q-29 56 -57.5 91t-76.5 70l-92 -68l-19 28l81 59q-20 12 -44.5 24t-47.5 19l14 30q21 -4 57 -19.5
t58 -27.5zM260 37q82 0 119.5 61.5t37.5 149.5q0 78 -36 133t-111 55q-81 0 -122.5 -58.5t-41.5 -144.5q0 -80 39 -138t115 -58z" />
    <glyph glyph-name="Yacute" unicode="&#xdd;" horiz-adv-x="810" 
d="M830 667l-385 -383v-284h-81v284l-384 383h115l309 -313l311 313h115zM544 756l-262 -43l-15 43l251 83z" />
    <glyph glyph-name="yacute" unicode="&#xfd;" horiz-adv-x="566" 
d="M586 470l-261 -509q-53 -102 -94 -143t-133 -41l-36 1v57l20 -1q73 0 102 36t80 135h-27l-264 465h81l236 -416l214 416h82zM421 559l-262 -43l-15 43l251 83z" />
    <glyph glyph-name="Thorn" unicode="&#xde;" horiz-adv-x="891" 
d="M174 587h444q99 0 162 -50.5t63 -147.5q0 -92 -60 -143.5t-153 -51.5h-456v-194h-81v667h81v-80zM600 254q72 0 119.5 32.5t47.5 102.5q0 71 -42.5 103t-116.5 32h-434v-270h426z" />
    <glyph glyph-name="thorn" unicode="&#xfe;" horiz-adv-x="755" 
d="M133 398q24 50 65.5 65.5t108.5 15.5h74q163 0 226.5 -43t63.5 -197q0 -126 -41 -183.5t-162 -57.5l-86 -2l-101 1q-58 0 -94.5 17t-53.5 67v-281h-70v867h70v-269zM596 235q0 126 -40.5 154t-175.5 28h-24q-48 0 -75.5 -1.5t-70.5 -11t-59.5 -51.5t-16.5 -117
q0 -128 50 -153t197 -25q129 0 172 29t43 148z" />
    <glyph glyph-name="minus" 
d="M477 320h-453v41h453v-41z" />
    <glyph glyph-name="multiply" unicode="&#xd7;" 
d="M408 529l30 -30l-160 -159l159 -159l-29 -28l-158 159l-159 -160l-30 30l160 159l-159 158l29 29l158 -159z" />
    <glyph glyph-name="onesuperior" unicode="&#xb9;" horiz-adv-x="529" 
d="M79 537l173 130h67v-400h-55v353l-152 -118z" />
    <glyph glyph-name="twosuperior" unicode="&#xb2;" horiz-adv-x="529" 
d="M498 267h-456v58q0 32 5 55t25 45.5t61.5 27t146.5 8.5t128 16.5t28 29t5 38.5q0 42 -16.5 58.5t-62.5 16.5l-100 3q-25 0 -48 -0.5t-56 -5t-45 -23t-12 -61.5l-1 -18h-54q0 51 5 79.5t28.5 47t65.5 24t98 5.5h70q118 0 152 -30.5t34 -95.5q0 -68 -30 -96t-97 -28
l-190 -13q-50 0 -67.5 -16.5t-17.5 -66.5v-11h401v-47z" />
    <glyph glyph-name="threesuperior" unicode="&#xb3;" horiz-adv-x="529" 
d="M367 494q35 0 50.5 13.5t15.5 46.5q0 40 -11.5 53.5t-51.5 13.5l-112 2l-82 -2q-47 0 -67 -11t-20 -60v-10h-54q0 49 11 77.5t45 38.5t62.5 12.5t69.5 2.5h68h47t67.5 -5.5t62.5 -27.5t22 -71q0 -53 -8.5 -68.5t-38.5 -26.5q33 -11 43 -31.5t10 -60.5q0 -59 -21 -84.5
t-87 -31.5l-54 -2l-129 1q-94 0 -133.5 22.5t-39.5 108.5h55v-12q0 -37 10.5 -52.5t47.5 -15.5q29 0 58.5 -1l59.5 -2l108 1q39 0 53.5 13.5t14.5 52.5q0 45 -11.5 56.5t-57.5 11.5h-168v48h165z" />
    <glyph glyph-name="onehalf" unicode="&#xbd;" horiz-adv-x="1280" 
d="M79 536l173 131h67v-400h-55v352l-152 -118zM394 0h-61l554 667h61zM1244 0h-457l1 20l-1 42q0 32 5 52.5t25.5 43.5t61.5 27.5t146 8.5t128.5 16.5t28.5 28.5t5 39q0 24 -5 39.5t-28 25.5t-47 10l-100 3q-24 0 -47.5 -0.5t-58 -5t-45 -25.5t-10.5 -77h-54v16
q0 44 5.5 68.5t28.5 42.5t65 23.5t98 5.5h70q95 0 140 -21.5t45 -104.5q0 -67 -29.5 -95.5t-97.5 -28.5l-190 -13q-49 0 -66.5 -16.5t-17.5 -66.5v-11h401v-47z" />
    <glyph glyph-name="onequarter" unicode="&#xbc;" horiz-adv-x="1280" 
d="M79 536l173 131h67v-400h-55v352l-152 -118zM394 0h-61l554 667h61zM1250 85h-65v-85h-55v85h-348v67l330 248h73v-267h65v-48zM839 133h291v220z" />
    <glyph glyph-name="threequarters" unicode="&#xbe;" horiz-adv-x="1280" 
d="M368 494q35 0 50.5 13.5t15.5 46.5q0 40 -11.5 53.5t-51.5 13.5l-112 2l-82 -2q-32 0 -51.5 -4.5t-26.5 -19.5t-8 -28t-1 -29h-54q0 47 12 76.5t44 39.5t61 12.5t70 2.5h69h47t69.5 -6t62.5 -30t20 -78q0 -46 -10.5 -60.5t-36.5 -24.5q33 -11 43 -31.5t10 -60.5
q0 -59 -21 -84.5t-87 -31.5l-54 -2l-129 1q-94 0 -133.5 22.5t-39.5 108.5h55v-12q0 -37 10.5 -52.5t47.5 -15.5q29 0 58.5 -1l59.5 -2l108 2q39 0 53.5 13.5t14.5 51.5q0 45 -11.5 56.5t-57.5 11.5h-168v48h165zM393 0h-60l554 667h61zM1250 85h-65v-85h-55v85h-348v67
l330 248h73v-267h65v-48zM839 133h291v220z" />
  </font>
</defs>
</svg>
